<svg class="ja" 
         xmlns="http://www.w3.org/2000/svg" 
         width="440"
         height="120"
         viewBox="-165 240 440 120">
    <path class="dark-blue joint joint-j"
          d="M-152.773 284.492c0-1.8 1-2.9 2.9-2.9h2.9c1.9 0 2.9 1 2.9 2.9v32.8c0 11.3-9.9 13.2-13.3 13.2h-1c-1.8 0-2.8-1-2.8-2.9v-1.8c0-2.2 1.4-2.6 2.8-2.8 2.4-.3 5.7-1 5.7-6.3l-.1-32.2z" />
    <path class="dark-blue joint joint-o"
          d="m -118.573,280.792 c 10.6,0 19.2,7.6 19.2,18.2 0,10.7 -8.6,18.2 -19.2,18.2 -10.6,0 -19.1,-7.5 -19.1,-18.2 0,-10.7 8.5,-18.2 19.1,-18.2 z m 0,28.988 c 5.7,0 10.4,-4.388 10.4,-10.788 0,-6.4 -4.7,-10.712 -10.4,-10.712 -5.7,0 -10.3,4.312 -10.3,10.712 0,6.5 4.6,10.788 10.3,10.788 z" />
    <path class="dark-blue joint joint-i-t"
          d="m -93.073,272.892 0,-2 c 0,-1.8 1,-2.9 2.8,-2.9 l 3,0 c 1.8,0 2.9,1 2.9,2.9 l 0,2 c 0,1.8 -1,2.8 -2.9,2.8 l -3,0 c -1.8,0 -2.8,-1 -2.8,-2.8 z" />
    <path class="dark-blue joint joint-i-b"
          d="m -93.073,284.492 c 0,-1.8 1.003,-2.9 2.803,-2.9 l 2.997,0 c 1.8,0 2.8,1 2.8,2.9 l 0,29.1 c 0,1.9 -1,2.9 -2.8,2.9 l -3,0 c -1.8,0 -2.8,-1 -2.8,-2.9 z" />
    <path class="dark-blue joint joint-n"
          d="m -75.973,284.492 c 0,-1.8 1.1,-2.9 2.9,-2.9 l 2.7,0 c 1.8,0 2.8,1 2.8,2.9 l 0,3.7 c 1.5,-2.9 5.3,-7.4 12.3,-7.4 7.7,0 12.1,4 12.1,13.2 l 0,19.5 c 0,1.9 -1,2.9 -2.9,2.9 l -2.9,0 c -1.8,0 -2.9,-1 -2.9,-2.9 l 0,-17.7 c 0,-4.2 -0.908419,-7.1479 -5.308419,-7.1479 -6.1,0 -10.191581,5.1479 -10.191581,11.4479 l 0,13.4 c 0,1.9 -1,2.9 -2.8,2.9 l -3,0 c -1.8,0 -2.8,-1 -2.8,-2.9 z" />
    <path class="dark-blue joint joint-t"
          d="m -35.273,288.992 c -1.8,0 -2.8,-1 -2.8,-2.9 l 0,-1.2 c 0,-1.8 1,-2.9 2.9,-2.9 l 2,0 0,-7 c 0,-1.8 1,-2.9 2.9,-2.9 l 2.673,0 c 1.8,0 2.927,1 2.927,2.9 l 0,7.1 5,0 c 1.8,0 2.9,1 2.9,2.9 l 0,1.2 c 0,1.9 -1,2.9 -2.8,2.9 l -5.1,0 0,13.5 c 0,5.2 3.2,6.2 5.6,6.5 2.1,0.2 2.9,0.9 2.9,2.8 l 0,2.1 c 0,2 -1.2,2.9 -3.5,2.9 -6.2,0 -13.6,-3.3 -13.6,-12.8 l 0,-15.1 z" />
    <path class="grey-blue academy-a1"
          d="M15.827 295.392h2v-1.1c0-6.6-3.6-8.9-8.5-8.9-3.8 0-6.8 1.4-8.3 2.4-1 .5-1.7.3-2.3-.5l-.4-.7c-.5-.9-.4-1.8.5-2.3 1.8-1.1 5.6-3 10.9-3 8.2 0 12.8 4.6 12.8 13.2v20.3c0 1.1-.5 1.7-1.6 1.7h-1.1c-1.1 0-1.7-.5-1.7-1.7v-2.7c0-1.6.2-2.6.2-2.6h-.1c.1 0-3.1 7.8-11.6 7.8-5.8 0-11.6-3.4-11.6-10-.1-11.3 14.2-11.9 20.8-11.9zm-8.5 17.9c6.6 0 10.5-6.8 10.5-12.8v-1.6h-1.9c-5.4 0-16.2.2-16.2 7.9 0 3.2 2.5 6.5 7.6 6.5z" />
    <path class="grey-blue academy-c"
          d="M48.227 281.192c5.9 0 9.7 2.5 11.4 3.9.8.6.9 1.4.2 2.3l-.5.8c-.6 1-1.4 1-2.3.3-1.5-1.2-4.5-3.1-8.7-3.1-7.5 0-13.4 5.7-13.4 13.8 0 8.1 5.9 13.8 13.4 13.8 4.8 0 8.1-2.3 9.7-3.6.9-.7 1.6-.5 2.3.4l.5.7c.5.9.3 1.6-.4 2.3-1.8 1.4-5.9 4.4-12.2 4.4-10.2 0-18-7.3-18-17.9 0-10.6 7.8-18.1 18-18.1z" />
    <path class="grey-blue academy-a2"
          d="M86.827 295.392h2v-1.1c0-6.6-3.6-8.9-8.5-8.9-3.8 0-6.8 1.4-8.3 2.4-1 .5-1.7.3-2.3-.5l-.4-.7c-.5-.9-.4-1.8.5-2.3 1.8-1.1 5.6-3 10.9-3 8.2 0 12.8 4.6 12.8 13.2v20.3c0 1.1-.5 1.7-1.6 1.7h-1.1c-1.1 0-1.7-.5-1.7-1.7v-2.7c0-1.6.2-2.6.2-2.6h-.1c.1 0-3.1 7.8-11.6 7.8-5.8 0-11.6-3.4-11.6-10-.1-11.3 14.2-11.9 20.8-11.9zm-8.5 17.9c6.6 0 10.5-6.8 10.5-12.8v-1.6h-1.9c-5.4 0-16.2.2-16.2 7.9-.1 3.2 2.5 6.5 7.6 6.5z" />
    <path class="grey-blue academy-d"
          d="M116.727 281.192c8.3 0 11.3 6.9 11.3 6.9h.1s-.2-1.2-.2-2.6v-15.4c0-1.1.6-1.7 1.7-1.7h1.3c1.1 0 1.6.6 1.6 1.7v44.5c0 1.1-.5 1.7-1.6 1.7h-1.2c-1.1 0-1.7-.5-1.7-1.6v-2.6c0-1.2.3-2.1.3-2.1h-.2s-2.9 7.2-11.9 7.2c-9.2 0-14.9-7.4-14.9-18 0-10.9 6.4-18 15.4-18zm.2 31.8c5.7 0 11.1-4.1 11.1-13.8 0-7-3.5-13.7-10.9-13.7-6.1 0-11.1 5-11.1 13.7 0 8.4 4.5 13.8 10.9 13.8z" />
    <path class="grey-blue academy-e"
          d="M157.727 281.192c9.1 0 14.3 6.6 14.3 16.4 0 1-.8 1.7-1.8 1.7h-24.6c.2 8.7 6.2 13.7 13.3 13.7 4.3 0 7.4-1.9 9-3.1 1-.6 1.7-.5 2.3.4l.5.8c.5.8.3 1.6-.5 2.3-1.8 1.4-5.9 3.8-11.5 3.8-10.2 0-17.9-7.4-17.9-17.9 0-11.3 7.7-18.1 16.9-18.1zm9.7 14.6c-.3-7.2-4.6-10.8-9.8-10.8-5.7 0-10.7 3.8-11.8 10.8h21.6z" />
    <path class="grey-blue academy-m"
          d="M180.227 283.792c0-1.1.6-1.7 1.7-1.7h1.2c1 0 1.6.6 1.6 1.7v4c0 1.4-.3 2.5-.3 2.5h.1c1.7-4.6 7.2-8.9 12.6-8.9 6.3 0 9.6 2.9 10.6 8.6h.1c1.9-4.4 6.9-8.6 12.6-8.6 8.3 0 11.4 4.8 11.4 13.3v20.1c0 1.1-.6 1.7-1.7 1.7h-1.2c-1.1 0-1.7-.6-1.7-1.7v-19c0-5.6-1.2-10.2-7.4-10.2-6.9 0-11.5 7.2-11.5 14.3v14.9c0 1.1-.5 1.7-1.6 1.7h-1.3c-1.1 0-1.7-.6-1.7-1.7v-19c0-5.2-.8-10.2-7.2-10.2-7 0-11.7 7.4-11.7 14.3v14.9c0 1.1-.5 1.7-1.6 1.7h-1.3c-1.1 0-1.7-.6-1.7-1.7v-31z" />
    <path class="grey-blue academy-y"
          d="M239.727 325.692c.8.3 1.8.9 3 .9 3.1 0 5.1-2.7 6.4-5.7l2-4.8-13.5-32.1c-.5-1.2.1-2 1.3-2h1.6c1 0 1.6.4 1.9 1.3l9.6 23.7c.6 1.7 1.2 3.6 1.2 3.6h.1s.5-1.9 1.2-3.6l9.4-23.7c.3-1 .9-1.4 1.9-1.4h1.5c1.2 0 1.8.8 1.4 2l-16.2 39.3c-1.8 4.4-5.3 7.4-9.9 7.4-2 0-3.6-.7-4.7-1.2-.9-.4-1.2-1.4-.8-2.2l.4-.8c.6-.7 1.3-1 2.2-.7z" />
    <path class="dark-blue man man-r-foot"
          d="m -0.007181,307.4463 c -3.887371,-2.67156 -1.375284,-8.25058 2.8141509,-7.91691 2.778395,0.36895 2.8285734,1.37246 3.8622508,2.76246 0.4047257,1.66683 0.2840287,3.46163 -0.7668182,4.40668 -1.7564225,1.5796 -3.3174867,2.50723 -5.9095835,0.74777 z" />
    <path class="dark-blue man man-l-foot"
          d="m -0.007181,307.4463 c -3.887371,-2.67156 -1.375284,-8.25058 2.8141509,-7.91691 2.778395,0.36895 2.8285734,1.37246 3.8622508,2.76246 0.4047257,1.66683 0.2840287,3.46163 -0.7668182,4.40668 -1.7564225,1.5796 -3.3174867,2.50723 -5.9095835,0.74777 z" />
    <path class="dark-blue man man-r-arm"
          d="m 9.455,272.592 c -4.2,5 -0.5,13.9 9.5,12.6 6.7,-0.8 10.4,2.9 12.6,0.3 1.9,-2.3 -1.55,-7.975 -6.5125,-11.85 -4.9625,-3.875 -11.4375,-5.95 -15.5875,-1.05 z" />
    <path class="dark-blue man man-body"
          d="m 40.955,283.292 c 10.6,-2.8 21.3,9.3 12.3,23.5 -6.1,9.5 -3,17.9 -8.6,19.3 -4.9,1.2 -11.075,-8.125 -13.4,-18.4375 -2.325,-10.3125 -0.8,-21.6125 9.7,-24.3625 z" />
    <path class="dark-blue man man-head"
          d="m 58.455002,256.29199 a 15,15 0 0 1 -15,15 15,15 0 0 1 -15,-15 15,15 0 0 1 15,-15 15,15 0 0 1 15,15 z" />
    <path class="dark-blue man man-l-arm"
          d="m 85.555,259.892 c 5.8,5.3 2.7,16.4 -9.4,16.5 -8.1,0 -11.9,5.1 -14.9,2.3 -2.6,-2.5 0.625,-9.825 5.925,-15.2125 5.3,-5.3875 12.675,-8.8375 18.375,-3.5875 z" />
  </svg>