
<svg
width="100%"
height="100%"
viewBox="0 0 560 560"
><g
transform="matrix(1.3333333,0,0,-1.3333333,0,666.66667)">
<g
transform="translate(-40.25424,-52.966104)">
<g
id="g1007"
clip-path="url(#clipPath1011)">
<g
id="g1017"
transform="translate(430.7508,151.8328)">
<path
d="m 0,0 v 1.688 h -4.378 v 2.848 h -2.795 v 3.271 h -0.422 v 14.029 h -6.857 V 7.807 h -1.477 V 4.536 h -0.949 v 12.5 h -5.907 v 14.98 h -0.703 v 50.791 h 0.773 v 3.305 h -20.534 v -3.305 h 0.633 V 32.016 h -3.165 v 58.966 h -2.953 v 10.18 h -8.306 l -3.931,4.153 v 13.779 h -1.161 v -12.552 -5.38 -5.169 -2.321 -2.69 h -3.269 V 58.967 H -75.739 V 11.709 h -11.182 v 60.127 h -15.189 v 19.199 h -0.951 v 2.637 h -13.818 v -2.637 h -1.476 V 36.551 h -10.286 v -6.373 h -5.538 v 39.496 h -5.907 v 40.981 h -2.32 v 2.216 l -12.131,3.797 v -6.013 h -2.849 V 55.803 h -3.164 V 32.016 h -2.954 v 68.09 h -16.667 V 49.262 h -4.641 V 46.52 h -6.751 v 7.172 h -7.314 v 17.669 h -5.837 v 3.535 l -15.471,3.199 v -6.734 h -3.165 v -37.64 h -10.302 v 49.613 h -4.22 v 7.701 l -14.346,-2.743 v -4.958 h -4.219 V 31.752 h -5.485 v 56.54 h -1.372 v 0.773 h -1.055 v 5.345 h -15.822 V 65.366 h -7.033 v 7.877 h -1.934 v 1.653 h -1.582 v 2.109 h -12.131 v -2.109 h -1.107 v -1.653 h -1.249 V 3.341 h -15.612 v 62.025 h -1.196 v 2.392 h -1.327 v 0.94 h -4.8 v -0.94 h -1.002 v 1.23 h -3.639 v 2.848 h -1.609 v -2.848 h -0.263 v -1.23 h -1.143 v -2.392 h -2.321 v -48.33 h -6.505 v -12.5 h -0.949 v 3.271 h -1.477 v 14.029 h -6.856 V 7.807 h -0.422 V 4.536 h -2.796 V 1.688 h -4.377 V 0 h -6.119 v -18.565 h 347.155 8.782 17.801 L 6.118,0 Z"
style="fill:#dd93e3;fill-opacity:1;fill-rule:nonzero;stroke:none"
id="path1019"
/>
</g>
<path
d="m 357.094,282.745 h 6.441 v -1.677 h -6.441 z M 101.438,152.574 h -1.61 v 9.889 h 1.61 z m -25.364,0 h -3.422 v 9.889 h 3.422 z m 379.256,98.462 v 18.319 h -2.416 v 11.713 h -1.245 v 12.344 h -4.643 v 6.239 h -2.416 v -18.583 h -4.982 v -11.713 h -3.775 v 4.227 h -1.509 v 11.676 h -3.02 v -11.676 h -6.945 v -4.227 h -2.868 v -18.319 h -5.738 v -64.819 h -5.434 v 22.545 h -36.236 v 48.515 h -3.723 v 23.791 h -1.812 v 16.62 h -1.107 v 7.096 h -2.416 v -7.096 h -1.51 v -11.86 h -6.441 v 11.86 h -1.108 v 7.096 h -2.415 v -7.096 h -1.511 v -16.62 h -2.817 v -23.791 h -6.241 v -42.375 h -5.636 v -6.14 h -10.065 v -29.39 h -5.436 v 13.89 h -18.117 v 29.39 h -4.127 v 5.637 h -1.912 v 3.623 h -1.108 v 7.851 h -0.662 v 8.211 h -1.312 v -8.211 h -1.448 v -7.851 h -3.12 v -3.623 h -9.561 v -5.637 h -4.933 v -48.111 h -13.61 c -4.091,43.782 -4.469,92.236 -4.503,99.746 h 4.739 v 3.284 l 2.947,3.497 v 4.19 l -5.023,4.592 h 2.076 v 3.284 h -4.215 v 3.283 h -1.685 v 3.234 h -1.963 v 24.923 l 2.542,2.492 v 1.245 1.359 l -2.542,2.454 v 18.155 h -1.296 v 6.567 h -3.044 v -6.567 h -1.296 v -18.155 l -2.618,-2.567 v -1.246 -1.358 l 2.542,-2.454 h 0.076 v -24.848 h -1.963 v -3.234 h -1.686 v -3.283 h -4.215 v -3.284 h 2.227 l -5.173,-4.592 v -4.19 l 2.946,-3.497 v -3.284 h 4.267 c -0.033,-7.392 -0.4,-54.454 -4.313,-97.683 h -8.698 v 21.791 h -13.085 v -32.761 h -3.824 v 7.095 h -8.574 c -3.141,14.476 -24.075,25.666 -49.452,25.666 -25.377,0 -46.312,-11.19 -49.452,-25.666 h -6.259 v -6.24 h -1.61 v 19.728 h -1.711 v 16.506 l -17.111,-7.599 v -8.907 h -4.932 v -19.728 h -3.422 v 39.053 h -2.416 v 19.124 H 51.515 V 205.542 H 39.839 v -57.739 -15.837 -1.108 h 36.235 23.754 195.062 59.687 50.829 10.367 22.194 22.194 v 16.945 103.233 z"
style="fill:#a6428a;fill-opacity:1;fill-rule:nonzero;stroke:none"
id="path1025"
/>
</g>
</g>
</g>
</svg>