<svg
   xmlns:svg="http://www.w3.org/2000/svg"
   xmlns="http://www.w3.org/2000/svg"
   width="667"
   height="300"
   viewBox="0 0 667 300"
>
  <path
    class="city__1"
    style="fill:none;fill-opacity:1;stroke:#000000;stroke-width:1px;stroke-linecap:butt;stroke-linejoin:miter;stroke-opacity:1"
    d="m 128.7859,299.92384 1.76642,-68.1838 29.32256,-0.35328 v -60.41154 h 8.12553 l 9.89194,-26.84958 9.89195,27.55614 h 7.41896 v 40.98094 l 15.19121,-20.49047 v -10.24523 l -2.47299,0.35328 2.82628,-3.53284 h 12.01165 l 2.47299,2.47299 -2.11971,0.35328 v 9.89195 l 14.48465,21.19704 4.59269,0.35328 2.47299,1.76642 h 2.1197 v -21.9036 h 8.12553 v -21.19704 h 10.24524 v 21.19704 h 7.41896 v 22.25688 h 3.17955 v -2.82627 h 3.17956 l 2.47299,-1.76642 42.04078,0.35329 1.41313,2.1197 14.83793,-12.01165 0.70657,-36.74153 40.27436,-30.02913 v 103.1589 l 8.47881,-7.77225 h 67.47723 v -10.24523 h 3.88612 v 10.59852 h 25.08316 v -14.48464 h 2.1197 v 7.06568 h 16.95763 v -12.36494 h 3.17955 v 21.19703 h 9.89195 V 215.1357 l -2.1197,0.70657 V 213.016 l 3.53284,-2.1197 v -15.89778 h 8.12553 v -21.19703 h 8.12553 v -21.55032 h 9.89195 v 20.84375 h 7.41896 v 21.9036 h 8.12553 v 42.74735 h 18.37076 v -6.00582 l 2.15435,0.57725 v 13.90739 h 13.74343 v -8.47882 l -1.94306,-1.94306 9.7153,-4.41605 8.72476,5.03724 -0.34695,1.29481 v 9.91901 l 4.2263,1.13244 v -98.99208 h 5.76666 l 10.9518,-27.55614 10.24523,27.55614 5.65254,0.35329 -0.35328,-58.99841 21.55032,16.95762 0.70656,193.2463"
     />
  <path
    class="city__2"
    style="fill:none;stroke:#000000;stroke-width:1px;stroke-linecap:butt;stroke-linejoin:miter;stroke-opacity:1;fill-opacity:1"
    d="m 1.4467761,54.00982 h 4.5926911 v 5.29926 l 7.7722448,17.31091 7.065678,0.70657 -0.353284,48.04661 1.76642,0.70657 10.598517,-16.95763 11.305085,16.60434 6.005826,0.35329 0.353284,83.72828 h 51.932732 v -11.30508 h 4.23941 v 10.9518 h 23.67002 l 0.35328,-11.65837 3.60848,-0.071 v 6.43011 h 16.5287 v -10.59852 h 2.82627 v 18.37076 h 9.53867 v -14.48464 h -2.47299 v -3.17955 l 14.035,-8.10311 13.98557,8.07457 1.40869,2.43993 h -1.87311 v 13.1331 c 0,0 -0.35329,0.70657 0,1.41314 0.35328,0.70656 5.65254,1.76642 7.41896,8.12553 1.76642,6.35911 -0.35329,0.70656 -0.35329,0.70656 l 13.42479,-0.35328 17.6642,-0.35328 0.35328,4.2394 13.77807,-0.35328 23.67002,-0.35328 v 19.43061 h 31.44227 l 12.01165,-53.69915 10.59852,42.74735 15.89777,0.35329 17.31092,-0.35329 6.00582,-30.38242 8.47882,1e-5 6.35911,29.67584 0.35328,12.01165 h 38.86123 42.04078 v 33.91526 c 25.5301,-21.0526 54.07763,-22.27644 86.20128,0 v -46.28019 l 7.06567,-11.65837 h 3.53284 l 6.90296,11.95628 h 8.99482 v -7.71687 h 9.53866 v -57.58528 h 18.01748 V 300.2487 H 1.0934922 Z"
     />
</svg>
