<?xml version="1.0" encoding="UTF-8" standalone="no"?>
<!-- Created with Inkscape (http://www.inkscape.org/) -->

<svg
   xmlns:dc="http://purl.org/dc/elements/1.1/"
   xmlns:cc="http://creativecommons.org/ns#"
   xmlns:rdf="http://www.w3.org/1999/02/22-rdf-syntax-ns#"
   xmlns:svg="http://www.w3.org/2000/svg"
   xmlns="http://www.w3.org/2000/svg"
   xmlns:sodipodi="http://sodipodi.sourceforge.net/DTD/sodipodi-0.dtd"
   xmlns:inkscape="http://www.inkscape.org/namespaces/inkscape"
   version="1.1"
   id="svg1389"
   width="100%"
   height="100%"
   viewBox="0 0 1600 1600"
   sodipodi:docname="city.svg"
   inkscape:version="0.92.2 (5c3e80d, 2017-08-06)">
  <metadata
     id="metadata1395">
    <rdf:RDF>
      <cc:Work
         rdf:about="">
        <dc:format>image/svg+xml</dc:format>
        <dc:type
           rdf:resource="http://purl.org/dc/dcmitype/StillImage" />
        <dc:title></dc:title>
      </cc:Work>
    </rdf:RDF>
  </metadata>
  <defs
     id="defs1393" />
  <sodipodi:namedview
     pagecolor="#ffffff"
     bordercolor="#666666"
     borderopacity="1"
     objecttolerance="10"
     gridtolerance="10"
     guidetolerance="10"
     inkscape:pageopacity="0"
     inkscape:pageshadow="2"
     inkscape:window-width="2560"
     inkscape:window-height="1017"
     id="namedview1391"
     showgrid="false"
     inkscape:zoom="1"
     inkscape:cx="802.38449"
     inkscape:cy="298.88016"
     inkscape:window-x="-8"
     inkscape:window-y="-8"
     inkscape:window-maximized="1"
     inkscape:current-layer="svg1389"
     inkscape:snap-global="false"
     units="pc" />
  <path
     style="fill:none;fill-opacity:1;stroke:#000000;stroke-width:1.13852835px;stroke-linecap:butt;stroke-linejoin:miter;stroke-opacity:1"
     d="m 832.13746,1370.0905 -27.9581,16.9431 -0.91724,193.0873 702.14788,-1.411 -2.2931,-68.1275 -38.0402,-0.3532 v -60.3625 h -10.5407 l -12.8337,-26.8275 -12.8338,27.5339 h -9.6234 v 40.9468 l -19.708,-20.4733 v -10.2377 l 3.2078,0.3532 -3.6664,-3.5284 h -15.583 l -3.2078,2.4707 2.7492,0.3532 v 9.8825 l -18.7908,21.1798 -5.957,0.3533 -3.2078,1.7641 h -2.7518 v -21.8843 h -10.5406 v -21.1799 h -13.2923 v 21.1799 h -9.6235 v 22.2376 h -4.125 v -2.8239 h -4.1251 l -3.2077,-1.7641 -54.5405,0.3532 -1.8344,2.1174 -19.2494,-12.0019 -0.9147,-36.712 -52.2498,-30.0046 v 103.0754 l -10.9993,-7.7671 h -87.5382 v -10.2357 h -5.0423 v 10.589 h -32.5418 v -14.4725 h -2.7492 v 7.0606 h -21.9986 v -12.3551 h -4.125 v 21.1799 h -12.8338 v -16.2386 l 2.7517,0.7064 v -2.8238 l -4.58365,-2.1174 v -15.8854 h -10.5432 v -21.1798 h -10.54067 v -21.5331 h -12.83123 v 20.8266 h -9.62597 v 21.8863 h -10.54067 v 42.7129 h -23.83306 v -6.0009 l -2.7948,0.5757 v 13.8968 H 900.4263 v -8.4716 l 2.52114,-1.9418 -12.60318,-4.4123 -11.31855,5.0329 0.44848,1.2939 v 9.9098 l -5.48065,1.1319 v -98.9109 h -7.48234 l -14.20711,-27.5339 -13.29238,27.5339 -7.33286,0.3533 z m -58.02688,1.128 0.45862,58.9496 -7.33286,-0.3533 -13.2924,-27.532 -14.20709,27.532 h -7.48236 v 98.9108 l -5.48064,-1.1298 v -9.9118 l 0.44849,-1.2939 -11.31855,-5.033 -12.6032,4.4124 2.52115,1.9418 v 8.4715 h -17.83046 v -13.8967 l -2.79479,-0.5758 v 6.001 h -23.83306 v -42.713 h -10.54067 v -21.8843 h -9.62343 v -20.8265 h -12.83376 v 21.5311 H 617.8249 v 21.1797 h -10.54321 v 15.8855 l -4.58367,2.1173 v 2.8239 l 2.75172,-0.7064 v 16.2385 h -12.83376 v -21.1798 h -4.12505 v 12.3551 h -21.99858 v -7.0606 h -2.74919 v 14.4725 h -32.54179 v -10.589 h -5.04229 v 10.2377 h -87.53822 l -10.9993,7.7651 v -103.0734 l -52.24979,30.0046 -0.91469,36.71 -19.24939,12.0018 -1.83449,-2.1173 -54.54036,-0.3532 -3.20781,1.7641 h -4.12505 v 2.8239 h -4.12504 v -22.2376 h -9.62343 v -21.1799 h -13.2924 v 21.1799 h -10.54067 v 21.8863 h -2.75172 l -3.20781,-1.7662 -5.95699,-0.3532 -18.79078,-21.1799 v -9.8824 l 2.74919,-0.3532 -3.2078,-2.4707 h -15.58296 l -3.66643,3.5303 3.2078,-0.3532 v 10.2358 l -19.70801,20.4733 v -40.9468 h -9.62342 l -12.83377,-27.534 -12.83378,26.8276 H 141.1713 v 60.3624 l -38.04017,0.3532 -2.29309,68.1276 702.14789,1.4129 -0.91724,-193.0892 z"
     id="path1946"
     inkscape:connector-curvature="0" />
  <path
     style="fill:none;fill-opacity:1;stroke:#000000;stroke-width:1.16174853px;stroke-linecap:butt;stroke-linejoin:miter;stroke-opacity:1"
     d="m 1596.5876,1353.9618 v 5.2954 l -10.4956,17.2991 -9.5435,0.7066 0.4774,48.0152 -2.3846,0.7067 -14.3153,-16.9479 -15.2675,16.5946 -8.1111,0.3533 -0.4775,83.6715 h -70.1387 v -11.2973 h -5.7241 v 10.946 h -31.9673 l -0.4774,-11.6505 -4.8747,-0.072 v 6.4255 h -22.321 v -10.5908 h -3.8168 v 18.3591 h -12.883 v -14.4748 h 3.3395 v -3.1776 l -18.9552,-8.0983 -18.8892,8.069 -1.9018,2.4378 h 2.5296 v 13.1242 c 0,0 0.4771,0.707 0,1.4131 -0.4771,0.7061 -7.6327,1.7649 -10.0183,8.1197 -0.1113,0.2965 -0.1587,0.4469 -0.2479,0.6929 l -17.4068,-0.3396 -23.8562,-0.3533 -0.4774,4.2374 -18.6069,-0.3532 -31.9674,-0.3533 v 19.4188 h -42.4657 l -16.2224,-53.6639 -14.3126,42.718 -21.4716,0.3533 -23.3788,-0.3533 -8.1111,-30.3608 h -11.4507 l -8.5886,29.6562 -0.4774,12.0039 h -52.4841 -56.77837 v 33.8917 c -34.4796,-21.0388 -73.03432,-22.2618 -116.41875,0 v -46.2489 l -9.54088,-11.6505 h -4.77175 l -9.32195,11.9472 h -12.14964 v -7.7117 h -12.88295 v -57.5481 h -24.33359 v 134.8664 h 800.61858 l -0.4775,-246.0765 z M 1.6522478,1354.0906 1.1748083,1600.1671 H 801.79338 v -134.8645 h -24.33359 v 57.5462 h -12.88295 v 7.7117 h -12.14701 l -9.32458,-11.9472 h -4.76912 l -9.54352,11.6505 v 46.2489 c -43.38451,-22.2618 -81.93914,-21.0387 -116.41874,0 V 1542.621 H 555.5955 503.11145 l -0.47745,-12.0039 -8.58863,-29.6562 h -11.45064 l -8.1112,30.3608 -23.37871,0.3533 -21.47158,-0.3533 -14.31264,-42.718 -16.22239,53.6639 h -42.46574 v -19.4188 l -31.96734,0.3533 -18.60695,0.3532 -0.47744,-4.2354 -23.85615,0.3513 -17.40675,0.3397 c -0.0892,-0.2458 -0.13683,-0.395 -0.24796,-0.691 -2.38564,-6.3549 -9.5412,-7.4156 -10.01832,-8.1216 -0.47714,-0.7062 0,-1.4112 0,-1.4112 v -13.1242 h 2.52964 l -1.90184,-2.4398 -18.8892,-8.0689 -18.95514,8.0982 v 3.1776 h 3.33944 v 14.4748 h -12.88031 v -18.359 h -3.81688 v 10.5926 h -22.3236 v -6.4274 l -4.87462,0.072 -0.47745,11.6505 h -31.96734 v -10.9459 h -5.724 v 11.2992 H 67.971496 l -0.477439,-83.6735 -8.111197,-0.3533 -15.267512,-16.5927 -14.312634,16.946 -2.387197,-0.7066 0.477439,-48.0153 -9.540877,-0.7066 -10.4983932,-17.2991 v -5.2954 z"
     id="path1942"
     inkscape:connector-curvature="0" />
</svg>
