<svg

width="100%"
height="100%"
viewBox="0 0 662 650"
>
<g
transform="matrix(1.3333333,0,0,-1.3333333,0,666.66667)">
<g
id="g1075"
transform="translate(1.0593221,3.1779663)"><g
id="g1077"
clip-path="url(#clipPath1081)"><g
id="g1107"
transform="translate(354.6143,206.475)">
<path
d="m -2.0277687,-164.02877 h 1.77800003 v 1.538 h 0.849 v -17.013 H -2.0277687 Z m -57.3330013,26.56699 h 0.267 l -0.267,-0.329 z m 89.484,-11.39099 c 0.004,0.001 0.016,0.006 0.016,0.006 0.621,-0.181 1.136,-0.167 1.273,-0.159 0.137,-0.008 0.653,-0.022 1.274,0.159 v 0 c 0,0 0.283,-0.082 0.39,-0.352 0.03,-0.077 0.081,-0.149 0.141,-0.213 h -3.094 z m 9.194,-16.171 c 0.746,0.358 0.806,0.686 0.806,0.686 l 1.935,-0.473 0.035,-0.781 0.816,-0.119 c 0,-0.458 0.677,-0.776 0.677,-0.776 l -0.821,-13.017 h -3.65 z m 7.611,-1.107 1.106,0.062 0.089,0.448 2.329,-0.284 0.108,-0.701 0.697,-0.165 c 0,0 0.07,-0.552 0.657,-0.776 l -0.519,-11.957 h -5.182 v 12.987 c 0,0 0.44,0.052 0.715,0.386 m 8.524,-0.864 0.835,0.12 0.075,0.269 3.821,-0.284 v -0.508 l 0.492,-0.164 c 0,0 -0.029,-0.448 0.568,-0.597 l -0.339,-11.345 h -6.112 l -0.141,11.962 c 0,0 0.606,-0.05 0.801,0.547 m 9.179,-0.656 0.418,0.089 v 0.523 l 4.656,-0.254 0.02,-0.428 0.319,-0.08 c -0.07,-0.447 0.617,-0.716 0.617,-0.716 l -0.253,-10.987 h -6.504 l -0.154,11.166 c 0.731,0 0.881,0.687 0.881,0.687 m 9.124,-0.249 0.233,0.077 v -11.681 h -0.566 l -0.105,11.067 c 0.478,0.139 0.438,0.537 0.438,0.537 m 14.54101,0 c 0,0 -0.04,-0.398 0.437,-0.537 l -0.104,-11.067 h -0.612 v 11.697 z m 3.711,0.099 0.318,0.08 0.02,0.428 4.656987,0.254 v -0.523 l 0.418,-0.089 c 0,0 0.149,-0.687 0.881,-0.687 l -0.154,-11.166 H 91.64324 l -0.253,10.987 c 0,0 0.687,0.269 0.617,0.716 m 9.36799,0.239 0.493,0.164 v 0.508 l 3.821,0.284 0.075,-0.269 0.835,-0.12 c 0.194,-0.597 0.801,-0.547 0.801,-0.547 l -0.141,-11.962 h -6.112 l -0.339,11.345 c 0.597,0.149 0.567,0.597 0.567,0.597 m -405.584,1.936 c 2.295,0.145 4.593,0.22 6.892,0.219 0.151,0 0.302,-0.002 0.454,-0.002 v -1.717 c -0.152,10e-4 -0.303,0.003 -0.454,0.003 -2.299,0.001 -4.598,-0.08 -6.892,-0.241 z m 0,12.888 h 1.352 v -11.514 c -0.451,-0.026 -0.902,-0.065 -1.352,-0.097 z m 8.027,-12.674 c 4.377,-0.043 8.754,-0.352 13.103,-0.923 l -0.431,-1.765 c -4.205,0.6 -8.438,0.924 -12.672,0.97 z m 13.782,-1.014 c 1.122,-0.155 2.243,-0.327 3.361,-0.517 l 0.793,-0.135 v -0.097 h -0.64 v -1.707 c -0.01,0.003 -0.02,0.006 -0.03,0.01 -0.054,0.016 -0.109,0.031 -0.167,0.042 l -0.948,0.17 c -0.933,0.168 -1.867,0.321 -2.802,0.461 z m 260.684001,107.586004 c 0,0 -0.481,-0.16 -0.733,0.092 -0.252,0.253 -0.236,0.645 -0.12,0.817001 0.116,0.173 0.405,0.501 0.693,0.501 0.328,0 0.649,-0.192 0.729,-0.496 0.08,-0.305001 -0.128,-0.777001 -0.569,-0.914001 M 143.35823,-179.50377 v 87.082004 h -5.698 v 0.6 h -0.212 v 0.9 c 0,0.254 -0.205,0.459 -0.459,0.459 h -0.829 c -0.254,0 -0.46,-0.205 -0.46,-0.459 v -0.9 h -0.211 v -0.6 h -4.449 v -7.804014 h -8.016 v -3.99 h -2.989 v -1.13 h 2.024 v -1.13 h -2.024 v -4.378 h -1.036 v -2.929 h -8.798 v -5.635 h 1.063 v -1.701 h -1.063 v -1.382 h 1.063 v -1.435 h -1.063 v -1.382 h 1.063 v -1.435 h -1.063 v -1.382 h 1.063 v -1.435 h -1.063 v -1.382 h 1.063 v -1.436 h -1.063 v -1.382 h 1.063 v -1.435 h -1.063 v -1.382 h 1.063 v -1.435 h -1.063 v -1.382 h 1.063 v -1.435 h -1.063 v -1.382 h 1.063 v -1.435 h -1.063 v -1.382 h 1.063 v -1.436 h -1.063 v -1.382 h 1.063 v -1.43499 h -1.063 v -1.382 h 1.063 v -1.435 h -1.063 v -1.382 h 1.063 v -1.435 h -1.063 v -1.382 h 1.063 v -0.531 c -0.068,0.021 -0.137,0.042 -0.212,0.042 -0.39,0 -0.706,-0.316 -0.706,-0.706 v -0.241 h -0.145 v -0.077 c -0.338,-0.056 -0.679,-0.112 -1.03,-0.166 v 1.25 c 0,0.489 -0.396,0.886 -0.885,0.886 -0.489,0 -0.886,-0.397 -0.886,-0.886 v -1.512 c -0.491,-0.068 -0.995,-0.135 -1.511,-0.201 v 0.046 c 0,0.391 -0.316,0.707 -0.706,0.707 -0.391,0 -0.707,-0.316 -0.707,-0.707 v -0.217 c -0.482,-0.056 -0.972,-0.11 -1.474,-0.163 v 0.091 c 0,0.39 -0.316,0.706 -0.706,0.706 v 0 c -0.39,0 -0.707,-0.316 -0.707,-0.706 v -0.233 c -0.496,-0.047 -1.002,-0.093 -1.517,-0.138 v 1.243 c 0,0.489 -0.396998,0.885 -0.885998,0.885 -0.489,0 -0.885005,-0.396 -0.885005,-0.885 v -1.386 c -0.482,-0.036 -0.971,-0.071 -1.468,-0.105 v 0.117 c 0,0.391 -0.316,0.707 -0.706,0.707 -0.391,0 -0.706987,-0.316 -0.706987,-0.707 v -0.206 c -0.542,-0.033 -1.092,-0.064 -1.652,-0.092 v 0.139 c 0,0.39 -0.316,0.707 -0.706,0.707 -0.39,0 -0.707,-0.317 -0.707,-0.707 v -0.207 c -0.426,-0.02 -0.857,-0.038 -1.293,-0.055 v 1.277 c 0,0.489 -0.397,0.886 -0.886,0.886 -0.489,0 -0.885,-0.397 -0.885,-0.886 v -1.338 c -0.42,-0.014 -0.845,-0.026 -1.274,-0.037 v 0.848 h 0.846 v 1.632 h 0.617 v 0.597 h -2.902 v 2.169 h 0.497 v 0.597 h 0.777 v 1.084 h -1.274 c 0,0 -0.096,0.896 -0.902,1.254 -0.806,0.358 -0.378,4.26899 -0.239,5.26399 0.139,0.995 0.537,1.02 0.537,1.632 0,0.612 -0.746,1.88 -0.865,2.119 -0.12,0.239 -0.598,0.192 -0.812,0.406 -0.214,0.214 -0.193,0.579 -0.124,0.768 0.07,0.189 0.249,0.259 0.349,0.558 0.099,0.298 -0.05,1.034 -0.757,1.323 -0.70601,0.289 -0.99501,-0.806 -1.03001,-1.1 -0.034,-0.293 0.264,-0.572 0.204,-0.84 -0.059,-0.269 -0.278,-0.199 -0.457,-0.02 -0.179,0.179 -0.767,0.855 -0.727,1.363 0.04,0.507 0.269,1.234 0.587,1.9 0.319,0.667 0.388,0.856 0.209,1.274 0,0 0.189,0.179 0.08,0.617 -0.11,0.438 -0.368,0.796 -0.707,0.736 -0.338,-0.059 0.185,-0.143 -0.099,-0.816 -0.219,-0.517 -0.03,-0.726 0.234,-0.721 0,0 0.055,-0.294 -0.254,-0.741 -0.308,-0.448 -0.776,-1.373 -0.915,-1.722 0,0 0.049,0.896 -0.737,1.065 0,0 -0.16,0.506 -0.597,0.269 -0.365,-0.199 -0.368,-0.498 -0.268,-0.697 0,0 -0.299,-0.222 -0.299,-0.597 0,-0.487 0.447,-0.848 0,-0.925 -0.517,-0.09 -0.895,-0.368 -0.895,-0.368 0,0 0.059,1.283 -1.583,2.358 -1.641,1.074 -2.477,1.463 -3.044,1.463 -0.567,0 0.288,-1.125 1.084,-1.622 0,0 -0.477,-0.757 1.294,-1.951 0,0 -0.736,-2.229 1.671,-2.567 0,0 0.405,-0.309 0.309,-0.637 -0.284,-0.97 -1.596,-1.704 -1.09,-2.343 0,0 -0.089,-0.672 -0.492,-0.94 -0.403,-0.269 -0.612,-0.642 0.507,-1.19399 1.12,-0.553 0.55,-0.245 -0.343,-1.612 -0.478,-0.732 -0.269,-1.747 -0.269,-1.747 0,0 -0.317,0.045 -0.45,-0.298 -0.132,-0.343 -0.261,-0.911 -0.261,-0.911 h -1.274 v -1.084 h 0.776 v -0.597 h 0.498 v -2.169 h -2.902 v -0.597 h 0.617 v -1.632 h 0.846 v -0.846 c -0.414,0.01 -0.823,0.022 -1.228,0.035 v 1.338 c 0,0.489 -0.396,0.886 -0.885,0.886 -0.489,0 -0.886,-0.397 -0.886,-0.886 v -1.277 c -0.436,0.017 -0.867,0.035 -1.293,0.055 v 0.207 c 0,0.39 -0.317,0.707 -0.707,0.707 -0.39,0 -0.706,-0.317 -0.706,-0.707 v -0.139 c -0.56,0.028 -1.111,0.059 -1.652,0.092 v 0.206 c 0,0.391 -0.317,0.707 -0.707,0.707 -0.39,0 -0.706,-0.316 -0.706,-0.707 v -0.117 c -0.497,0.034 -0.986,0.069 -1.468,0.105 v 1.386 c 0,0.489 -0.396,0.885 -0.885,0.885 -0.489,0 -0.886,-0.396 -0.886,-0.885 v -1.243 c -0.515,0.045 -1.021,0.091 -1.517,0.138 v 0.233 c 0,0.39 -0.317,0.706 -0.707,0.706 -0.39,0 -0.706,-0.316 -0.706,-0.706 v -0.091 c -0.502,0.053 -0.993,0.107 -1.474,0.163 v 0.217 c 0,0.391 -0.317,0.707 -0.707,0.707 -0.39,0 -0.706,-0.316 -0.706,-0.707 v -0.046 c -0.516,0.066 -1.02,0.133 -1.511,0.201 v 1.512 c 0,0.489 -0.397,0.886 -0.886,0.886 -0.489,0 -0.886,-0.397 -0.886,-0.886 v -1.25 c -0.399,0.062 -0.791,0.125 -1.174,0.189 v 0.295 c 0,0.39 -0.316,0.706 -0.706,0.706 -0.39,0 -0.707,-0.316 -0.707,-0.706 v -0.048 c -0.466,0.085 -0.918,0.171 -1.357,0.259 v 0.286 c 0,0.391 -0.316,0.707 -0.706,0.707 -0.388,0 -0.703,-0.313 -0.706,-0.7 -0.34,0.074 -0.67,0.148 -0.992,0.223 v 1.89 c 0,0.489 -0.396,0.885 -0.886,0.885 -0.489,0 -0.885,-0.396 -0.885,-0.885 v -1.454 c -0.372,0.097 -0.73,0.194 -1.075,0.291 v 0.341 c 0,0.39 -0.316,0.707 -0.706,0.707 -0.364,0 -0.663,-0.276 -0.702,-0.629 -0.313,0.098 -0.613,0.195 -0.9,0.292 v 0.436 c 0,0.39 -0.316,0.707 -0.707,0.707 -0.367,0 -0.668,-0.28 -0.703,-0.638 -0.18,0.069 -0.353,0.136 -0.521,0.204 v 1.912 c 0,0.489 -0.396,0.886 -0.885,0.886 -0.489,0 -0.886,-0.397 -0.886,-0.886 v -1.128 c -0.133,0.065 -0.259,0.129 -0.378,0.191 v 0.245 c 0,0.39 -0.316,0.706 -0.706,0.706 -0.209,0 -0.396,-0.091 -0.525,-0.235 -0.418,0.277 -0.59,0.44 -0.59,0.44 v 1.463 l -1.527,1.527 c 0.04,0.075 0.028,0.158 -0.032,0.194 -0.103,0.061 -0.273,0.027 -0.286,-0.099 h -0.033 c -0.034,0.025 -0.084,0.092 -0.055,0.277 0.042,0.271 0.073,0.519 -0.074,0.614 h -0.001 c 0.14,0.078 0.28,0.168 0.416,0.273 1.469,1.12399 0.798,2.26499 0.423,2.60299 -0.375,0.337 -0.337,0.726 -0.337,0.726 0,0 0.475,0.247 0.342,0.646 -0.107,0.321 -1.773,0.494 -2.422,0.55 -0.159,0.014 -0.318,0.02 -0.478,0.02 -0.159,0 -0.318,-0.006 -0.477,-0.02 -0.199,-0.017 -0.496,-0.047 -0.812,-0.087 v 15.466 l -29.52399867,14.111 v -47.68099 h -2.23200003 -0.395 v 0.012 l 0.395,-0.012 c 0,0 0.136,0.184 -0.225,0.264 -0.065,0.014 -0.117,0.052 -0.17,0.086 v 3.655 h -0.766 c -0.234,0.601 -0.45,1.242 -0.45,1.242 0,0 0.14,-0.036 0.241,-0.137 0.1,-0.1 0.248,0 0.248,0 0,0 0.152,-0.112 0.304,-0.088 0.153,0.024 0.433,0.225 0.289,0.369 -0.144,0.144 -0.329,0.016 -0.393,0.16 -0.064,0.144 -0.761,0.689 -0.817,1.033 -0.056,0.345 -0.096,1.386 -0.1360001,1.587 -0.04,0.2 -0.441,0.592 -0.441,0.592 0,0 0.201,-0.061 0.201,0.123 0,0.184 0.2960001,0.855 -0.056,1.095 -0.353,0.24 -0.697,0.232 -0.91,-0.076 -0.212,-0.309 -0.02,-0.613 -0.02,-0.749 0,-0.136 0.045,-0.196 -0.136,-0.497 -0.18,-0.3 -0.396,-0.973 -0.216,-1.598 0.18,-0.625 0.088,-0.773 -0.152,-1.334 -0.163,-0.379 -0.193,-1.215 -0.195,-1.722 h -0.3739999 v 3.901 l -1.9659999,0.18 c -0.005,0.099 -0.011,0.197 -0.016,0.291 0.124,0.352 0.086,0.652 -0.029,0.9 0.051,0.197 -0.093,0.967 -0.148,1.541 -0.06,0.625 -0.06,1.778 -0.397,1.947 -0.466,0.233 -0.589,0.438 -0.589,0.438 l 0.018,0.186 c 0,0 0.145,-0.037 0.265,-0.012 0.12,0.025 0.192,0.477 0.192,0.62699 0,0.149 0.018,0.303 0.018,0.303 0,0 0.145,0.192 0.048,0.416 -0.096,0.225 -0.737,0.409 -1.005,0.164 -0.268,-0.244 -0.244,-0.548 -0.188,-0.797 0.056,-0.24799 0.032,-0.44799 0.032,-0.44799 0,0 -0.191,-0.273 -0.385,-0.353 -0.029,-0.012 -0.058,-0.026 -0.087,-0.038 l -0.866,34.97599 c 0,0 0.313,0.601 0.313,1.057 0,0.457 0.018,2.486 0.018,2.486 0.8110004,0.106 0.278,2.289 0.278,2.289 1.3140004,0.777 0.9250004,2.102 1.2820004,2.667 0.617,0.977 1.426,0.008 1.546,0.425 0.302,1.047 -0.633,1.41 -0.633,1.41 1.2659999,1.265 0.961,3.14 0.961,4.614003 0,1.47401 1.0899999,1.63401 1.3139999,1.85801 0.224,0.224 -1.1859999,1.25 -1.1859999,1.25 -1.249,-0.417 -4.0050004,-0.417 -4.0050004,-0.417 l 0.128,5.800001 0.561,0.961 v 2.179 l -1.538,1.25 -1.009,0.104 c -0.087,0.195 -0.267,0.473 -0.657,0.768 -0.721,0.544 -0.465,1.169 -0.321,1.634 0.145,0.464 0.545,0.641 0.625,1.314 0.08,0.672 0,2.13 0,2.13 0,0 0.801,-0.32 1.138,-1.778 0.336,-1.458 0.4,-2.259 0.833,-2.387 0.432,-0.128 0.448,1.169 0.304,1.762 -0.144,0.593 -0.865,1.314 -0.785,2.179 0.08,0.865 0.721,0.369 0.985,0.617 0.265,0.248 0.601,1.049 0.441,1.514 -0.16,0.464 -0.577,0.737 -0.817,1.265 -0.24,0.529 -0.689,0.641 -1.01,0.465 0,0 -0.208,0.673 -0.688,0.961 0,0 -0.136,1.098 -0.433,1.394 -0.296,0.297 -0.657,0.801 -0.657,1.49 0,0.689 -0.048,1.49 -0.048,1.49 0,0 0.929,-0.096 1.458,0.112 0.529,0.209 1.17,0.497 1.386,0.433 0.216,-0.064 0.288,-0.152 0.288,-0.497 0,-0.344 -0.048,-0.769 0.168,-0.673 0.217,0.096 0.008,0.681 0.221,0.894 0.212,0.212 0.132,0.46 0.116,0.909 -0.016,0.448 0.152,0.665 -0.08,0.913 -0.232,0.248 -0.625,0.088 -0.765,-0.092 -0.14,-0.18 -0.349,-0.653 -0.709,-0.733 -0.361,-0.08 -1.342,0.044 -1.434,0.136 -0.092,0.092 0.064,1.073 0.064,1.29 0,0.216 0.737,0.368 0.913,0.961 0,0 0.817,0.32 0.817,1.178 0,0 1.35,-0.058 1.6020004,0.408 0.209,0.385 -0.088,0.665 -0.088,0.665 0,0 0.7210004,0.176 0.8820004,0.609 0.135,0.366 -0.101,0.549 -0.101,0.549 0,0 0.958,0.268 1.134,0.725 0.176,0.456 -0.625,0.793 -0.625,0.793 0,0 1.026,0.552 1.154,1.201 0.128,0.649 -0.529,0.449 -1.05,0.273 -0.52,-0.177 -1.9300004,-0.777 -3.3560004,-0.793 -1.426,-0.017 -1.438,-0.181 -1.827,-0.569 -0.388,-0.389 -1.009,-1.242 -1.129,-1.482 -0.12,-0.24 -0.505,-2.059 -0.849,-2.163 -0.345,-0.104 -0.729,0.16 -0.837,0.412 -0.109,0.253 -0.024,0.721 0.052,0.797 0.076,0.077 0.609,0.369 0.689,0.818 0.08,0.448 0.16,1.69 -0.553,2.259 -0.713,0.568 -1.734,-0.044 -1.887,-0.541 -0.152,-0.497 -0.26,-1.342 -0.02,-1.782 0.241,-0.441 0.449,-0.553 0.449,-0.729 0,-0.177 -0.112,-0.769 -0.352,-0.737 -0.241,0.032 -0.665,0.464 -1.106,0.769 -0.441,0.304 -0.985,0.921 -1.202,1.498 -0.216,0.576 -0.616,3.02 -0.616,3.388 0,0.369 0.446,0.388 0.721,0.873 0.232,0.385 0.176,1.050001 0,1.562001 -0.125,0.363 -1.346,0.92 -1.971,0.593 -0.521,-0.272 -0.669,-0.589 -0.833,-0.817 -0.164,-0.228 -0.145,-0.599001 -0.104,-1.025001 0.051,-0.535 0.526,-1.112 0.825,-1.17 0.279,-0.054 0.553,0.064 0.609,-0.433 0.056,-0.496 -0.016,-2.524 0.196,-3.032 0,0 -1.426,2.213 -4.314,3.868 -3.380001,1.936001 -3.793001,2.950001 -4.215001,2.529001 -0.421,-0.422 0.474,-1.770001 1.027,-2.323001 0,0 -1.034,0.096 -0.024,-1.25 0,0 -0.601,-1.85 1.658,-2.09 0,0 -0.12,-1.971 2.187001,-1.971 0,0 -0.24,-0.697 0.505,-1.058 0,0 -0.097,-1.225 1.297,-1.105 0,0 -0.072,-1.322 1.418,-1.033 0,0 -0.553,-1.202 0.577,-1.514 0,0 -0.072,-0.769 0.721,-0.625 0,0 -0.144,-0.962 0.721,-0.697 0,0 -0.024,-0.889 0.937,-0.697 0,0 -0.577,-1.178 -0.456,-1.803 0.12,-0.624 0.648,-1.201 0.648,-1.201 0,0 -0.648,-0.697 -0.648,-1.562 0,-0.865 0.528,-0.865 0.528,-1.658 0,-0.793 -0.192,-1.082 -0.192,-1.082 0,0 -0.481,-0.264 -0.577,-1.057 -0.096,-0.793 0.986,-1.162 0.986,-1.162 0,0 -0.016,-0.512 0.352,-0.593 0.369,-0.08 0.993,0.081 0.897,-0.416 -0.096,-0.497 -0.224,-1.346 0.833,-1.25 0,0 -0.032,-0.544 0.417,-0.993 0.448,-0.449 -0.506,-0.761 -0.945,-0.881 -0.643,-0.176 -0.901,-0.631 -1.005,-0.932 l -1.126,-0.116 -1.538,-1.25 v -2.179 l 0.561,-0.961 0.128,-5.800001 c 0,0 -2.756,0 -4.006,0.417 0,0 -1.41,-1.026 -1.185,-1.25 0.224,-0.224 1.314,-0.384 1.314,-1.85801 0,-1.474003 -0.305,-3.349003 0.961,-4.614003 0,0 -0.935,-0.363 -0.633,-1.41 0.12,-0.417 0.929,0.552 1.546,-0.425 0.357,-0.565 -0.032,-1.89 1.282,-2.667 0,0 -0.533,-2.183 0.278,-2.289 0,0 0.018,-2.029 0.018,-2.486 0,-0.456 0.312,-1.057 0.312,-1.057 l -0.008,-0.331 H -40.08177 l -17.805,-21.955 h -1.474 v 2.02 h 1.51 v 1.488 h -1.51 v 2.02 h 1.51 v 1.488 h -1.51 v 2.02 h 1.51 v 1.488 h -1.51 v 2.02 h 1.51 v 1.489 h -1.51 v 2.02 h 1.51 v 1.488 h -1.51 v 2.02 h 1.51 v 1.488 h -1.51 v 2.02 h 1.51 v 1.488 h -1.51 v 2.02 h 1.51 v 1.489 h -1.51 v 2.019 h 1.51 v 1.489 h -1.51 v 2.02 h 1.51 v 1.488 h -1.51 v 2.020003 h 1.51 v 1.48801 h -1.51 v 19.242001 h -7.654 l -7.604,-16.159004 -0.051,-0.106 v -2.976997 h -1.509 v -1.48801 h 1.509 v -2.020003 h -1.509 v -1.488 h 1.509 v -2.02 h -1.509 v -1.489 h 1.509 v -2.019 h -1.509 v -1.489 h 1.509 v -2.02 h -1.509 v -1.488 h 1.509 v -2.02 h -1.509 v -1.488 h 1.509 v -2.02 h -1.509 v -1.488 h 1.509 v -2.02 h -1.509 v -1.489 h 1.509 v -2.02 h -1.509 v -1.488 h 1.509 v -2.02 h -1.509 v -1.488 h 1.509 v -2.02 h -1.509 v -1.488 h 1.509 v -2.02 h -1.509 v -1.489 h 1.509 v -2.019 h -1.509 v -1.489 h 1.509 v -2.02 h -1.509 v -1.488 h 1.509 v -2.02 h -1.509 v -1.48799 h 1.509 v -2.02 h -1.509 v -1.488 h 1.509 v -2.02 h -1.509 v -1.489 h 1.509 v -1.665 l -0.287,-0.354 h -1.222 v -0.942 h -9.725 v 15.04699 h -0.676 c -1.059,0 -1.918,-0.858 -1.918,-1.917 v -0.087 h -4.34 c -0.623,8.23 -6.572005,14.992 -14.403,16.84 v 1.072 c 0,0.803 -0.651,1.454 -1.454,1.454 h -0.023 v 6.315 h -0.635 v -1.035 h -0.501 v 0.719 h -0.635 v -0.719 h -0.33 v 1.082 c 0.313,0.227 0.519,0.593 0.519,1.01 0,0.597 -0.419,1.095 -0.979,1.219 0.334,0.114 0.576,0.427 0.576,0.799 0,0.208 -0.078,0.396 -0.203,0.544 0.109,0.269 -0.052,0.609 -0.182,0.739 -0.136,0.136 -0.125,0.431 -0.125,0.431 1.95,0.915 2.177,2.73 2.177,2.73 -1.698,-0.941 -2.196,-1.804 -2.196,-1.804 0.041,0.634 -0.319,0.621 -0.319,0.621 0,0 -0.359,0.013 -0.319,-0.621 0,0 -0.498,0.863 -2.196,1.804 0,0 0.227,-1.815 2.177,-2.73 0,0 0.011,-0.295 -0.125,-0.431 -0.13,-0.13 -0.291,-0.47 -0.182,-0.739 -0.124,-0.148 -0.202,-0.336 -0.202,-0.544 0,-0.372 0.241,-0.685 0.575,-0.799 -0.56,-0.124 -0.979,-0.622 -0.979,-1.219 0,-0.417 0.206,-0.783 0.519,-1.01 v -1.082 h -0.33 v 0.719 h -0.635 v -0.719 h -0.501 v 1.035 h -0.635 v -6.315 h -0.023 c -0.803,0 -1.454,-0.651 -1.454,-1.454 v -1.071 c -7.833,-1.847 -13.784,-8.609 -14.407,-16.841 h -4.34 v 0.087 c 0,1.059 -0.859,1.917 -1.918,1.917 h -0.676 v -15.04699 h -17.226 v 42.69299 c 0,1.737 -1.409,3.146 -3.146,3.146 h -10.604 v -4.271 l 3.375,-1 v -3.813 h -15.75 v -24.562 h -18.126 v 2.673 h -0.875 v 3.107 l 0.875,0.205 v 2.938 h -0.875 v 3.107 l 0.875,0.205 v 2.938 h -0.875 v 5.687 h -19.156 v 1.111 h 1.063 v 1.382 h -1.063 v 1.435 h 1.063 v 1.382 h -1.063 v 1.435 h 1.063 v 1.382 h -1.063 v 1.436 h 1.063 v 1.382 h -1.063 v 1.435 h 1.063 v 1.382 h -1.063 v 1.435 h 1.063 v 1.382 h -1.063 v 1.435 h 1.063 v 1.382 h -1.063 v 1.701 h 1.063 v 5.635013 h -19.668 v -5.635013 h 1.063 v -1.701 h -1.063 v -1.382 h 1.063 v -1.435 h -1.063 v -1.382 h 1.063 v -1.435 h -1.063 v -1.382 h 1.063 v -1.435 h -1.063 v -1.382 h 1.063 v -1.436 h -1.063 v -1.382 h 1.063 v -1.435 h -1.063 v -1.382 h 1.063 v -1.435 h -1.063 v -1.382 h 1.063 v -1.435 h -1.063 v -1.382 h 1.063 v -1.435 h -1.063 v -1.382 h 1.063 v -1.435 h -1.063 v -1.383 h 1.063 v -1.435 h -1.063 v -1.382 h 1.063 v -1.435 h -1.063 v -1.382 h 1.063 v -1.435 h -1.063 v -1.382 h 1.063 v -0.774 h -14.101 v -1.391 h 0.626 v -7.99499 h -8.181 v -1.992 h -1.112 v -3.059 h 1.112 v -1.344 h -1.112 v -3.059 h 1.112 v -1.344 h -1.112 v -3.059 h 1.112 v -1.344 h -1.112 v -3.059 h 1.112 v -1.344 h -1.112 v -3.059 h 1.112 v -5.978 h -1.118 v 9.717 h -2.218 v 2.612 h -0.641 v 2.611 h 0.641 v 2.612 h -0.641 v 2.612 h 0.641 v 2.612 h -0.641 v 2.612 h 0.641 v 2.612 h -0.641 v 2.611 h 0.641 v 2.61199 h -0.641 v 2.612 h 0.641 v 2.612 h -0.641 v 2.612 h 0.641 v 2.611 h -0.641 v 2.612 h 0.641 v 2.612 h -0.641 v 2.612 h 0.641 v 2.612 h -0.641 v 2.612 h 0.641 v 2.612 h -0.641 v 2.611 h 0.641 v 2.612 h -0.641 v 2.612 h 0.641 v 2.612 h 1.035 v 3.745 h -2.316 v 7.540013 h -2.662 l -0.788,7.540001 h -0.936 l -2.087,4.698 h -0.251 v 12.151 h -0.542 l -0.274,8.832 -0.274,-8.832 h -0.542 v -12.151 h -0.251 l -2.087,-4.698 h -0.936 l -0.789,-7.540001 h -2.661 v -7.540013 h -2.316 v -3.745 h 1.035 v -2.612 h 0.64 v -2.612 h -0.64 v -2.612 h 0.64 v -2.611 h -0.64 v -2.612 h 0.64 v -2.612 h -0.64 v -2.612 h 0.64 v -2.612 h -0.64 v -2.612 h 0.64 v -2.612 h -0.64 v -2.611 h 0.64 v -2.612 h -0.64 v -2.612 h 0.64 v -2.612 h -0.64 v -2.61199 h 0.64 v -2.611 h -0.64 v -2.612 h 0.64 v -2.612 h -0.64 v -2.612 h 0.64 v -2.612 h -0.64 v -2.612 h 0.64 v -1.786 c -0.186,0.27 -0.467,0.479 -0.837,0.546 l -0.948,0.17 c -3.368,0.606 -6.758,1.031 -10.157,1.278 v 11.618 h 4.692 v 1.059 l -4.692,1.544 v 5.52499 h -0.848 c 0,0 0.091,0.439 -0.439,1.196 -0.53,0.757 -1.165,0.409 -1.71,0.469 -0.545,0.061 -0.742,0.681 -0.787,1.196 -0.046,0.515 -0.681,0.802 -0.681,1.362 0,0.56 0.151,0.863 0.151,1.09 0,0.227 -0.257,0.53 -0.257,0.53 0,0 -0.016,1.695 -0.182,2.361 -0.167,0.666 -0.636,1.06 -0.757,1.332 -0.121,0.273 0.273,0.575 0.757,1.559 0.484,0.984 0.772,1.756 0.772,1.756 0.651,1.514 -0.833,3.073 -0.681,4.495 0.151,1.423 -0.227,2.316 -0.227,2.316 0,0 0.234,0.239 0.159,0.734 -0.03,0.195 0.295,0.417 0.855,0.704 0.56,0.288 1.635,0.999 1.816,1.181 0.182,0.182 0.878,0.167 1.491,0.628 0.613,0.462 1.779,1.824 2.066,1.915 0.093,0.029 0.212,0.049 0.335,0.071 0.013,-0.31 0.011,-0.619 0.003,-0.925 0.004,-0.163 -0.027,-0.325 -0.038,-0.486 -0.015,-0.162 -0.03,-0.323 -0.045,-0.482 -0.041,-0.318 -0.105,-0.63 -0.155,-0.939 -0.052,-0.308 -0.146,-0.603 -0.211,-0.897 -0.063,-0.296 -0.155,-0.576 -0.243,-0.851 -0.09,-0.273 -0.161,-0.545 -0.26,-0.797 -0.095,-0.255 -0.188,-0.5 -0.276,-0.736 -0.044,-0.118 -0.088,-0.233 -0.13,-0.346 -0.048,-0.111 -0.095,-0.219 -0.141,-0.324 -0.091,-0.211 -0.177,-0.412 -0.258,-0.6 -0.155,-0.381 -0.32,-0.699 -0.449,-0.964 -0.256,-0.532 -0.402,-0.836 -0.402,-0.836 0,0 0.169,0.292 0.465,0.803 0.145,0.258 0.329,0.567 0.508,0.938 0.092,0.185 0.191,0.381 0.295,0.587 0.052,0.104 0.104,0.21 0.158,0.319 0.048,0.112 0.097,0.227 0.147,0.343 0.099,0.234 0.203,0.478 0.311,0.73 0.11,0.252 0.19,0.525 0.29,0.799 0.098,0.275 0.2,0.558 0.274,0.856 0.041,0.148 0.082,0.298 0.123,0.449 0.04,0.152 0.086,0.304 0.112,0.462 0.057,0.315 0.129,0.632 0.177,0.958 0.034,0.329 0.084,0.66 0.099,0.997 0.011,0.338 0.015,0.681 0,1.024 0.114,0.04 0.203,0.095 0.235,0.18 0.09,0.242 0.098,1.203 0,1.302 -0.055,0.055 -0.271,0.062 -0.451,0.058 l -0.133,0.486 c -0.041,0.167 -0.117,0.323 -0.174,0.484 -0.061,0.16 -0.118,0.321 -0.201,0.471 -0.076,0.152 -0.152,0.303 -0.228,0.454 -0.09,0.142 -0.18,0.284 -0.269,0.425 -0.084,0.144 -0.191,0.271 -0.29,0.402 -0.101,0.13 -0.196,0.263 -0.309,0.378 -0.418,0.495 -0.906,0.89 -1.38,1.236 -0.475,0.349 -0.968,0.61 -1.426,0.834 -0.459,0.226 -0.9,0.383 -1.292,0.516 -0.393,0.126 -0.741,0.221 -1.03,0.287 -0.288,0.067 -0.518,0.104 -0.675,0.128 -0.156,0.024 -0.24,0.031 -0.24,0.031 0,0 0.083,-0.014 0.237,-0.051 0.154,-0.034 0.378,-0.095 0.66,-0.177 0.283,-0.082 0.622,-0.197 1.003,-0.344 0.378,-0.156 0.802,-0.337 1.244,-0.575 0.439,-0.241 0.908,-0.516 1.359,-0.867 0.449,-0.35 0.906,-0.747 1.299,-1.226 0.106,-0.113 0.194,-0.242 0.288,-0.368 0.092,-0.127 0.193,-0.249 0.27,-0.389 0.082,-0.135 0.165,-0.272 0.249,-0.409 0.071,-0.144 0.142,-0.289 0.213,-0.434 0.078,-0.143 0.131,-0.297 0.188,-0.449 0.053,-0.155 0.125,-0.302 0.163,-0.463 l 0.083,-0.308 c -0.064,-0.006 -0.156,-0.029 -0.294,-0.085 -0.484,-0.197 -0.499,-1.196 -0.499,-1.196 -1.15,-0.878 -2.337,-1.337 -3.027,-2.028 -0.42,-0.419 -1.057,-0.41 -1.518,-0.553 -0.587,-0.181 -1.074,-0.53 -1.506,-0.579 -0.707,-0.079 -0.707,-0.374 -1.109,-0.321 -0.56,0.074 -0.484,0.499 -0.484,0.499 0,0 0.484,-0.106 0.484,0.152 0,0.257 -0.007,1.241 -0.007,1.65 0,0.408 -0.386,1.135 -1.446,1.105 -1.059,-0.031 -1.15,-0.939 -1.695,-1.484 -0.545,-0.545 -0.703,-1.695 -0.703,-1.695 -0.642,-0.394 -1.507,-1.241 -2.324,-2.725 -0.818,-1.483 0.121,-1.362 0.908,-1.362 0.787,0 2.645,1.184 2.645,1.184 0.458,-0.654 0.935,-0.7 1.109,-1.426 0.219,-0.914 -0.394,-1.423 -0.666,-1.938 -0.273,-0.514 -0.061,-1.241 -0.061,-1.241 0,0 -0.514,-1.15 -0.514,-2.936 0,-1.332 1.543,-3.89 1.543,-3.89 -0.59,0 -0.476,-1.885 -0.908,-2.316 -0.431,-0.432 0.091,-1.816 -0.726,-2.134 -0.818,-0.318 -0.772,-1.272 -0.772,-1.272 -0.152,-0.393 -0.258,-0.454 -0.893,-0.711 -0.636,-0.258 -0.636,-1.287 -0.636,-1.287 h -1.15 v -5.52499 l -1.352,-0.444 v 7.69299 h -10.774 v -0.911 h -8.795 v 0.911 h -9.383 v 12.02 h 0.935 v 0.797 h -24.416 v -49.43499 -4 -14.3305 h 500.018 v 18.3305 z"
style="fill:#2a113c;fill-opacity:1;fill-rule:nonzero;stroke:none"
id="path1109"
/>
</g>
</g>
</g>
</g>
</svg>