<?xml version="1.0" encoding="UTF-8" standalone="no"?>
<!-- Generated by IcoMoon.io -->

<svg
   xmlns:dc="http://purl.org/dc/elements/1.1/"
   xmlns:cc="http://creativecommons.org/ns#"
   xmlns:rdf="http://www.w3.org/1999/02/22-rdf-syntax-ns#"
   xmlns:svg="http://www.w3.org/2000/svg"
   xmlns="http://www.w3.org/2000/svg"
   xmlns:sodipodi="http://sodipodi.sourceforge.net/DTD/sodipodi-0.dtd"
   xmlns:inkscape="http://www.inkscape.org/namespaces/inkscape"
   version="1.1"
   width="190"
   height="190"
   viewBox="0 0 190 190"
   id="svg873"
   sodipodi:docname="curly-brackets.svg"
   inkscape:version="0.92.2 (5c3e80d, 2017-08-06)">
  <metadata
     id="metadata879">
    <rdf:RDF>
      <cc:Work
         rdf:about="">
        <dc:format>image/svg+xml</dc:format>
        <dc:type
           rdf:resource="http://purl.org/dc/dcmitype/StillImage" />
        <dc:title></dc:title>
      </cc:Work>
    </rdf:RDF>
  </metadata>
  <defs
     id="defs877" />
  <sodipodi:namedview
     pagecolor="#ffffff"
     bordercolor="#666666"
     borderopacity="1"
     objecttolerance="10"
     gridtolerance="10"
     guidetolerance="10"
     inkscape:pageopacity="0"
     inkscape:pageshadow="2"
     inkscape:window-width="2560"
     inkscape:window-height="1017"
     id="namedview875"
     showgrid="true"
     inkscape:zoom="3.6875"
     inkscape:cx="29.616932"
     inkscape:cy="102.43794"
     inkscape:window-x="-8"
     inkscape:window-y="-8"
     inkscape:window-maximized="1"
     inkscape:current-layer="svg873">
    <inkscape:grid
       type="xygrid"
       id="grid5113" />
  </sodipodi:namedview>
  <path
     d="M 62.040002,44.168783 C 63.320001,57.575028 64.6,60.668746 64.6,74.074992 64.6,82.325003 55,89.543753 55,89.543753 v 10.312472 c 0,0 9.6,7.218755 9.6,15.468785 0,13.40624 -1.279999,16.50002 -2.559998,29.90626 -1.92,21.65626 5.119999,31.96873 11.52,31.96873 6.4,0 13.439998,0 13.439998,0 v -20.625 c 0,0 -11.52,2.06251 -11.52,-10.31247 0,-9.28127 1.279999,-9.28127 2.560002,-29.90627 C 78.679999,107.07498 74.839999,99.856225 71,94.699989 74.839999,89.543753 78.679999,83.356261 78.040002,74.074992 76.119998,53.449995 75.48,53.449995 75.48,44.168783 75.48,31.793795 87,32.824997 87,32.824997 V 12.2 c 0,0 -6.400001,0 -13.439998,0 -7.040002,0 -13.44,10.312528 -11.52,31.968783 z"
     id="path869"
     inkscape:connector-curvature="0"
     style="fill:#444444;stroke-width:8.12403774" />
  <path
     d="m 128.53622,44.468727 c -1.27995,13.406235 -2.55996,16.499981 -2.55996,29.906277 0,8.24993 9.60001,15.468733 9.60001,15.468733 v 10.312503 c 0,0 -9.60001,7.21874 -9.60001,15.46872 0,13.40623 1.28001,16.49998 2.55996,29.90621 1.92003,21.6563 -5.11997,31.96878 -11.51998,31.96878 -6.39997,0 -13.43997,0 -13.43997,0 v -20.62498 c 0,0 11.51999,2.06256 11.51999,-10.31255 0,-9.28124 -1.28,-9.28124 -2.56001,-29.90621 -0.63998,-9.28123 3.19999,-16.49997 7.04,-21.65621 -3.84001,-5.156263 -7.67998,-11.343817 -7.04,-20.624996 1.28001,-20.624978 2.56001,-20.624978 2.56001,-29.906277 0,-12.375048 -11.51999,-11.343798 -11.51999,-11.343798 V 12.499951 c 0,0 6.39997,0 13.43997,0 7.03999,0 13.44001,10.312488 11.51998,31.968776 z"
     id="path871"
     inkscape:connector-curvature="0"
     style="fill:#444444;stroke-width:8.12403774" />
</svg>
