<?xml version="1.0" encoding="UTF-8" standalone="no"?>
<!-- Created with Inkscape (http://www.inkscape.org/) -->

<svg
   xmlns:dc="http://purl.org/dc/elements/1.1/"
   xmlns:cc="http://creativecommons.org/ns#"
   xmlns:rdf="http://www.w3.org/1999/02/22-rdf-syntax-ns#"
   xmlns:svg="http://www.w3.org/2000/svg"
   xmlns="http://www.w3.org/2000/svg"
   xmlns:sodipodi="http://sodipodi.sourceforge.net/DTD/sodipodi-0.dtd"
   xmlns:inkscape="http://www.inkscape.org/namespaces/inkscape"
   width="600mm"
   height="600mm"
   viewBox="0 0 600 600"
   version="1.1"
   id="svg8"
   inkscape:version="0.92.2 (5c3e80d, 2017-08-06)">
  <defs
     id="defs2" />
  <sodipodi:namedview
     id="base"
     pagecolor="#ffffff"
     bordercolor="#666666"
     borderopacity="1.0"
     inkscape:pageopacity="0.0"
     inkscape:pageshadow="2"
     inkscape:zoom="0.35"
     inkscape:cx="853.32721"
     inkscape:cy="788.57143"
     inkscape:document-units="mm"
     inkscape:current-layer="layer1"
     showgrid="false"
     inkscape:window-width="2560"
     inkscape:window-height="1017"
     inkscape:window-x="-8"
     inkscape:window-y="-8"
     inkscape:window-maximized="1" />
  <metadata
     id="metadata5">
    <rdf:RDF>
      <cc:Work
         rdf:about="">
        <dc:format>image/svg+xml</dc:format>
        <dc:type
           rdf:resource="http://purl.org/dc/dcmitype/StillImage" />
        <dc:title></dc:title>
      </cc:Work>
    </rdf:RDF>
  </metadata>
  <g
     inkscape:label="Layer 1"
     inkscape:groupmode="layer"
     id="layer1"
     transform="translate(0,303)">
    <path
       style="fill:none;stroke:#000000;stroke-width:30;stroke-linecap:butt;stroke-linejoin:round;stroke-miterlimit:4;stroke-dasharray:none;stroke-opacity:1"
       d="m 199.57142,249.37499 c 0,0 -21.16667,-9.07142 -19.65476,-23.43451 1.5119,-14.36309 14.36309,-18.89882 14.36309,-18.89882 0,0 9.07143,-8.31548 24.19048,3.77976 15.11905,12.09524 6.80357,21.16667 6.80357,21.16667 0,0 -9.82738,17.3869 -12.85119,14.36309 -3.02381,-3.02379 -9.07143,-23.43452 -9.07143,-23.43452 z"
       id="path819"
       inkscape:connector-curvature="0" />
    <path
       style="fill:none;stroke:#000000;stroke-width:30;stroke-linecap:butt;stroke-linejoin:round;stroke-miterlimit:4;stroke-dasharray:none;stroke-opacity:1"
       d="m 381.41723,249.99661 c 0,0 -21.16667,-9.07142 -19.65476,-23.43451 1.5119,-14.36309 14.36309,-18.89882 14.36309,-18.89882 0,0 9.07143,-8.31548 24.19048,3.77976 15.11905,12.09524 6.80357,21.16667 6.80357,21.16667 0,0 -9.82738,17.3869 -12.85119,14.36309 -3.02381,-3.02379 -9.07143,-23.43452 -9.07143,-23.43452 z"
       id="path819-8"
       inkscape:connector-curvature="0" />
  </g>
</svg>
