<svg aria-hidden="true" style="position: absolute; width: 0; height: 0; overflow: hidden;" version="1.1" xmlns="http://www.w3.org/2000/svg" xmlns:xlink="http://www.w3.org/1999/xlink">
<defs>
<symbol id="icon-github" viewBox="0 0 32 32">
<title>github</title>
<path d="M16 0.396c-8.84 0-16 7.164-16 16 0 7.071 4.584 13.067 10.94 15.18 0.8 0.151 1.093-0.344 1.093-0.769 0-0.38-0.013-1.387-0.020-2.72-4.451 0.965-5.389-2.147-5.389-2.147-0.728-1.847-1.78-2.34-1.78-2.34-1.449-0.992 0.112-0.972 0.112-0.972 1.607 0.112 2.451 1.648 2.451 1.648 1.427 2.447 3.745 1.74 4.66 1.331 0.144-1.035 0.556-1.74 1.013-2.14-3.553-0.4-7.288-1.776-7.288-7.907 0-1.747 0.62-3.173 1.647-4.293-0.18-0.404-0.72-2.031 0.14-4.235 0 0 1.34-0.429 4.4 1.64 1.28-0.356 2.64-0.532 4-0.54 1.36 0.008 2.72 0.184 4 0.54 3.040-2.069 4.38-1.64 4.38-1.64 0.86 2.204 0.32 3.831 0.16 4.235 1.020 1.12 1.64 2.547 1.64 4.293 0 6.147-3.74 7.5-7.3 7.893 0.56 0.48 1.080 1.461 1.080 2.96 0 2.141-0.020 3.861-0.020 4.381 0 0.42 0.28 0.92 1.1 0.76 6.401-2.099 10.981-8.099 10.981-15.159 0-8.836-7.164-16-16-16z"></path>
</symbol>
<symbol id="icon-firebase" viewBox="0 0 32 32">
<title>firebase</title>
<path fill="#ffca28" style="fill: var(--color1, #ffca28)" d="M5.187 20.897l3.153-20.283c0.055-0.35 0.354-0.614 0.714-0.614 0.276 0 0.515 0.154 0.637 0.381l0.002 0.004 3.391 6.361-7.897 14.151zM27.58 25.819l-3.003-18.665c-0.060-0.345-0.357-0.604-0.714-0.604-0.199 0-0.379 0.080-0.51 0.21l0-0-18.933 19.059 10.476 5.904c0.304 0.174 0.669 0.277 1.058 0.277s0.754-0.103 1.069-0.282l-0.011 0.006 10.568-5.904zM19.067 9.531l-2.427-4.643c-0.123-0.232-0.364-0.387-0.64-0.387s-0.517 0.155-0.638 0.383l-0.002 0.004-10.653 19.091 14.36-14.448z"></path>
</symbol>
<symbol id="icon-sass" viewBox="0 0 32 32">
<title>sass</title>
<path fill="#c69" style="fill: var(--color2, #c69)" d="M16 0c8.836 0 16 7.164 16 16s-7.164 16-16 16-16-7.164-16-16 7.164-16 16-16zM12.82 21.331c0.233 0.86 0.208 1.664-0.032 2.389l-0.087 0.24c-0.032 0.081-0.069 0.16-0.104 0.235-0.187 0.387-0.435 0.747-0.74 1.080-0.931 1.012-2.229 1.396-2.787 1.073-0.6-0.349-0.301-1.78 0.779-2.92 1.161-1.224 2.827-2.012 2.827-2.012v-0.004l0.144-0.081zM26.035 6.849c-0.723-2.844-5.436-3.779-9.896-2.193-2.652 0.943-5.525 2.424-7.591 4.356-2.457 2.295-2.848 4.295-2.687 5.131 0.569 2.948 4.609 4.876 6.271 6.307v0.008c-0.489 0.24-4.075 2.039-4.915 3.9-0.9 1.96 0.14 3.361 0.82 3.54 2.1 0.581 4.26-0.48 5.42-2.199 1.12-1.681 1.021-3.841 0.539-4.901 0.661-0.18 1.44-0.26 2.44-0.139 2.801 0.32 3.361 2.080 3.24 2.8-0.12 0.719-0.697 1.139-0.899 1.259-0.2 0.121-0.26 0.16-0.241 0.241 0.020 0.12 0.121 0.12 0.28 0.1 0.22-0.040 1.461-0.6 1.521-1.961 0.060-1.72-1.581-3.639-4.5-3.6-1.2 0.021-1.961 0.121-2.5 0.341-0.040-0.060-0.081-0.1-0.14-0.14-1.8-1.94-5.14-3.3-5-5.88 0.040-0.94 0.38-3.419 6.4-6.419 4.94-2.461 8.881-1.78 9.561-0.28 0.977 2.139-2.101 6.12-7.241 6.699-1.96 0.22-2.98-0.539-3.241-0.82-0.279-0.3-0.319-0.32-0.419-0.259-0.16 0.080-0.060 0.34 0 0.5 0.16 0.4 0.78 1.1 1.861 1.46 0.939 0.3 3.24 0.479 6-0.6 3.099-1.199 5.519-4.54 4.819-7.34l0.097 0.089z"></path>
</symbol>
<symbol id="icon-redux" viewBox="0 0 32 32">
<title>redux</title>
<path fill="#764abc" style="fill: var(--color3, #764abc)" d="M22.177 22.005c1.159-0.1 2.057-1.12 1.999-2.339-0.061-1.219-1.060-2.197-2.277-2.197h-0.081c-1.257 0.041-2.237 1.099-2.197 2.359 0.040 0.639 0.301 1.159 0.659 1.537-1.397 2.717-3.495 4.715-6.672 6.393-2.137 1.117-4.395 1.539-6.592 1.239-1.837-0.259-3.275-1.080-4.155-2.397-1.317-1.999-1.437-4.155-0.34-6.312 0.801-1.559 1.999-2.697 2.799-3.257-0.2-0.519-0.44-1.397-0.56-2.056-5.915 4.236-5.313 10.028-3.516 12.765 1.339 1.997 4.076 3.275 7.072 3.275 0.799 0 1.639-0.059 2.457-0.259 5.195-0.999 9.129-4.115 11.387-8.709l0.019-0.041z"></path>
<path fill="#764abc" style="fill: var(--color3, #764abc)" d="M29.308 17.011c-3.095-3.636-7.651-5.633-12.845-5.633h-0.68c-0.337-0.739-1.116-1.199-1.996-1.199h-0.060c-1.257 0-2.237 1.080-2.196 2.337 0.040 1.197 1.059 2.197 2.277 2.197h0.099c0.9-0.040 1.679-0.6 1.997-1.399h0.74c3.079 0 5.993 0.899 8.651 2.656 2.036 1.339 3.496 3.096 4.315 5.195 0.717 1.717 0.679 3.396-0.060 4.796-1.139 2.196-3.057 3.356-5.593 3.356-1.599 0-3.156-0.5-3.956-0.859-0.479 0.397-1.279 1.057-1.859 1.457 1.757 0.797 3.536 1.257 5.253 1.257 3.896 0 6.791-2.196 7.891-4.315 1.197-2.397 1.099-6.432-1.959-9.888l-0.019 0.040z"></path>
<path fill="#764abc" style="fill: var(--color3, #764abc)" d="M8.653 22.723c0.039 1.199 1.057 2.197 2.277 2.197h0.080c1.279-0.040 2.257-1.097 2.197-2.357 0-1.199-1.039-2.196-2.257-2.196h-0.081c-0.080 0-0.199 0-0.3 0.039-1.657-2.797-2.357-5.795-2.096-9.028 0.159-2.437 0.959-4.556 2.396-6.313 1.199-1.499 3.456-2.239 4.995-2.277 4.315-0.081 6.113 5.295 6.252 7.432l1.997 0.599c-0.46-6.552-4.533-9.989-8.429-9.989-3.656 0-7.031 2.657-8.391 6.553-1.857 5.195-0.639 10.188 1.639 14.184-0.199 0.26-0.319 0.719-0.279 1.157z"></path>
</symbol>
<symbol id="icon-webpack" viewBox="0 0 32 32">
<title>webpack</title>
<path fill="#8dd6f9" style="fill: var(--color4, #8dd6f9)" d="M28.021 24.16l-11.553 6.506v-5.068l7.198-3.942 4.355 2.503zM28.811 23.448v-13.607l-4.228 2.429v8.746l4.228 2.432zM3.901 24.16l11.553 6.506v-5.068l-7.198-3.942-4.355 2.503zM3.111 23.448v-13.607l4.228 2.429v8.746l-4.228 2.432zM3.605 8.96l11.849-6.674v4.9l-7.649 4.19-4.2-2.415zM28.317 8.96l-11.849-6.674v4.9l7.649 4.19 4.2-2.415zM15.454 24.446l-7.102-3.887v-7.703l7.101 4.083v7.508zM16.468 24.446l7.101-3.887v-7.703l-7.101 4.083v7.508zM8.833 11.965l7.129-3.904 7.129 3.904-7.129 4.099-7.129-4.099z"></path>
</symbol>
<symbol id="icon-html5" viewBox="0 0 32 32">
<title>html5</title>
<path fill="#e34f26" style="fill: var(--color5, #e34f26)" d="M2 0h28l-2.547 28.751-11.484 3.249-11.419-3.251-2.551-28.749zM11.375 13l-0.309-3.624 13.412 0.004 0.307-3.496-17.568-0.004 0.931 10.68h12.168l-0.435 4.568-3.88 1.072-3.94-1.080-0.251-2.813h-3.479l0.44 5.561 7.229 1.933 7.172-1.924 0.992-10.876h-12.789z"></path>
</symbol>
<symbol id="icon-csswizardry" viewBox="0 0 32 32">
<title>csswizardry</title>
<path fill="#f43059" style="fill: var(--color6, #f43059)" d="M0.040 21.904v-20.413c0-0.824 0.667-1.491 1.489-1.491h28.871c0.832 0 1.493 0.667 1.493 1.493v19.68c-0.893-0.547-1.947-0.821-3.143-0.821-1.672 0-2.94 0.4-3.805 1.195-0.867 0.797-1.293 1.771-1.293 2.967 0 1.293 0.44 2.253 1.333 2.867 0.52 0.38 1.48 0.72 2.853 1.016l1.4 0.32c0.84 0.177 1.427 0.4 1.813 0.613 0.373 0.244 0.573 0.583 0.573 1.020 0 0.755-0.387 1.273-1.16 1.531l-0.040 0.021h-2.947c-0.383-0.139-0.68-0.339-0.92-0.6-0.24-0.299-0.4-0.733-0.48-1.351h-2.64c0 0.755 0.137 1.393 0.44 1.973h-2.24c0.253-0.52 0.4-1.097 0.4-1.756 0-1.173-0.4-2.067-1.181-2.688-0.499-0.396-1.253-0.713-2.251-0.956l-2.293-0.536c-0.88-0.187-1.453-0.373-1.733-0.533-0.413-0.24-0.613-0.6-0.613-1.053 0-0.507 0.213-0.907 0.627-1.187 0.44-0.28 1-0.413 1.72-0.413 0.653 0 1.173 0.12 1.613 0.347 0.659 0.341 1 0.92 1.053 1.716h2.667c-0.040-1.395-0.553-2.471-1.533-3.205-0.992-0.733-2.167-1.113-3.56-1.113-1.673 0-2.927 0.4-3.804 1.173-0.853 0.777-1.293 1.773-1.293 2.947 0 1.293 0.44 2.251 1.333 2.867 0.536 0.36 1.493 0.697 2.867 1.013l1.393 0.32c0.813 0.18 1.413 0.38 1.813 0.62 0.373 0.24 0.573 0.573 0.573 1.013 0 0.76-0.4 1.253-1.173 1.533h-2.987c-0.379-0.141-0.693-0.341-0.92-0.62-0.24-0.293-0.413-0.752-0.493-1.352h-2.689c0 0.744 0.14 1.4 0.427 1.973h-2.787c0.44-0.693 0.737-1.493 0.884-2.387h-2.737c-0.187 0.68-0.416 1.197-0.7 1.533-0.347 0.44-0.8 0.72-1.36 0.86h-1.636c-0.6-0.14-1.116-0.477-1.533-1.013-0.619-0.744-0.917-1.859-0.917-3.333 0-1.493 0.307-2.627 0.88-3.44 0.6-0.817 1.373-1.213 2.387-1.213 1 0 1.733 0.28 2.253 0.859 0.28 0.32 0.52 0.8 0.693 1.435h2.773c-0.040-0.824-0.347-1.653-0.915-2.48-1.029-1.467-2.659-2.2-4.885-2.2-1.547 0-2.845 0.48-3.88 1.413l-0.067-0.147zM31.899 26.752v-2.072h-0.688c-0.047-0.796-0.4-1.363-1.044-1.699-0.417-0.219-0.956-0.331-1.591-0.331-0.72 0-1.273 0.147-1.693 0.429-0.416 0.287-0.637 0.691-0.637 1.203 0 0.473 0.221 0.827 0.636 1.060 0.293 0.14 0.867 0.339 1.747 0.539l2.293 0.547c0.4 0.080 0.747 0.2 1.067 0.307l-0.067 0.040z"></path>
</symbol>
<symbol id="icon-react" viewBox="0 0 32 32">
<title>react</title>
<path fill="#61dafb" style="fill: var(--color7, #61dafb)" d="M18.852 16c0 1.575-1.277 2.852-2.852 2.852s-2.852-1.277-2.852-2.852c0-1.575 1.277-2.852 2.852-2.852s2.852 1.277 2.852 2.852z"></path>
<path fill="#61dafb" style="fill: var(--color7, #61dafb)" d="M8.011 21.673l-0.629-0.16c-4.691-1.185-7.381-3.197-7.381-5.519s2.691-4.333 7.381-5.519l0.629-0.159 0.177 0.624c0.545 1.86 1.163 3.443 1.899 4.957l-0.082-0.186 0.135 0.284-0.135 0.284c-0.656 1.329-1.275 2.912-1.761 4.551l-0.056 0.22-0.177 0.623zM7.089 11.933c-3.565 1.001-5.753 2.533-5.753 4.061 0 1.527 2.188 3.059 5.753 4.061 0.512-1.62 1.046-2.965 1.662-4.263l-0.086 0.202c-0.531-1.098-1.066-2.443-1.511-3.828l-0.065-0.234zM23.989 21.673l-0.177-0.625c-0.544-1.859-1.162-3.441-1.9-4.954l0.081 0.184-0.135-0.284 0.135-0.284c0.656-1.329 1.275-2.911 1.762-4.55l0.056-0.221 0.177-0.624 0.631 0.159c4.689 1.185 7.38 3.197 7.38 5.52s-2.691 4.333-7.38 5.519l-0.631 0.16zM23.335 15.995c0.64 1.385 1.169 2.747 1.576 4.061 3.567-1.003 5.753-2.535 5.753-4.061 0-1.528-2.188-3.059-5.753-4.061-0.511 1.619-1.045 2.963-1.662 4.262l0.086-0.2z"></path>
<path fill="#61dafb" style="fill: var(--color7, #61dafb)" d="M7.080 11.927l-0.177-0.623c-1.319-4.648-0.919-7.979 1.097-9.141 1.977-1.141 5.152 0.207 8.479 3.621l0.453 0.465-0.453 0.465c-1.146 1.19-2.207 2.482-3.162 3.853l-0.068 0.103-0.18 0.257-0.313 0.027c-1.875 0.151-3.596 0.439-5.264 0.86l0.218-0.047-0.629 0.159zM9.608 3.087c-0.357 0-0.673 0.077-0.94 0.231-1.325 0.764-1.56 3.42-0.647 7.004 1.21-0.285 2.681-0.521 4.18-0.658l0.131-0.010c0.894-1.264 1.792-2.37 2.756-3.414l-0.020 0.022c-2.080-2.025-4.049-3.175-5.46-3.175zM22.393 30.236c-0.001 0-0.001 0 0 0-1.9 0-4.34-1.431-6.872-4.031l-0.453-0.465 0.453-0.465c1.146-1.19 2.206-2.482 3.16-3.854l0.068-0.103 0.18-0.257 0.312-0.027c1.875-0.15 3.597-0.438 5.267-0.858l-0.218 0.046 0.629-0.159 0.179 0.624c1.316 4.645 0.917 7.977-1.099 9.139-0.449 0.259-0.988 0.411-1.562 0.411-0.016 0-0.031-0-0.047-0l0.002 0zM16.932 25.728c2.080 2.025 4.049 3.175 5.46 3.175h0.001c0.356 0 0.673-0.077 0.939-0.231 1.325-0.764 1.561-3.421 0.647-7.005-1.212 0.286-2.682 0.522-4.182 0.658l-0.13 0.010c-0.893 1.265-1.791 2.371-2.755 3.416l0.020-0.022z"></path>
<path fill="#61dafb" style="fill: var(--color7, #61dafb)" d="M24.92 11.927l-0.629-0.159c-1.453-0.376-3.175-0.664-4.939-0.806l-0.111-0.007-0.312-0.027-0.18-0.257c-1.021-1.474-2.082-2.766-3.237-3.966l0.009 0.010-0.453-0.465 0.453-0.465c3.325-3.413 6.499-4.761 8.479-3.621 2.016 1.163 2.416 4.493 1.099 9.14l-0.179 0.624zM19.667 9.653c1.523 0.139 2.969 0.364 4.312 0.668 0.915-3.584 0.679-6.24-0.647-7.004-1.317-0.761-3.793 0.405-6.4 2.944 0.943 1.022 1.841 2.128 2.666 3.289l0.069 0.103zM9.608 30.236c-0.014 0-0.030 0-0.046 0-0.574 0-1.113-0.152-1.577-0.419l0.015 0.008c-2.016-1.161-2.416-4.492-1.097-9.139l0.176-0.624 0.629 0.159c1.54 0.388 3.239 0.661 5.047 0.812l0.313 0.027 0.179 0.257c1.022 1.475 2.083 2.767 3.239 3.967l-0.010-0.010 0.453 0.465-0.453 0.465c-2.531 2.6-4.971 4.031-6.868 4.031zM8.021 21.667c-0.915 3.584-0.679 6.241 0.647 7.005 1.316 0.751 3.791-0.407 6.4-2.944-0.943-1.022-1.841-2.129-2.667-3.29l-0.069-0.103c-1.629-0.146-3.099-0.382-4.534-0.711l0.224 0.043z"></path>
<path fill="#61dafb" style="fill: var(--color7, #61dafb)" d="M16 22.504c-1.097 0-2.225-0.048-3.355-0.141l-0.313-0.027-0.18-0.257c-0.544-0.768-1.139-1.691-1.697-2.639l-0.103-0.19c-0.452-0.758-0.971-1.732-1.45-2.728l-0.105-0.243-0.133-0.284 0.133-0.284c0.584-1.239 1.102-2.212 1.658-3.161l-0.103 0.191c0.552-0.955 1.159-1.907 1.8-2.829l0.18-0.257 0.313-0.027c1.005-0.090 2.174-0.142 3.355-0.142s2.35 0.052 3.505 0.153l-0.15-0.011 0.312 0.027 0.179 0.257c1.177 1.666 2.294 3.567 3.252 5.56l0.104 0.24 0.135 0.284-0.135 0.284c-1.058 2.232-2.176 4.133-3.439 5.925l0.083-0.125-0.179 0.257-0.312 0.027c-1.129 0.093-2.259 0.141-3.356 0.141zM13.071 21.059c1.973 0.148 3.885 0.148 5.86 0 1.004-1.445 1.978-3.104 2.827-4.836l0.101-0.228c-0.947-1.958-1.922-3.617-3.012-5.19l0.083 0.126c-0.877-0.071-1.898-0.111-2.929-0.111s-2.052 0.040-3.063 0.119l0.134-0.008c-1.008 1.447-1.983 3.106-2.83 4.84l-0.099 0.224c0.951 1.96 1.926 3.619 3.014 5.193l-0.085-0.13z"></path>
</symbol>
<symbol id="icon-javascript" viewBox="0 0 32 32">
<title>javascript</title>
<path fill="#f7df1e" style="fill: var(--color8, #f7df1e)" d="M0 0h32v32h-32v-32zM29.379 24.368c-0.233-1.46-1.184-2.687-4.004-3.831-0.981-0.46-2.072-0.78-2.396-1.52-0.121-0.44-0.14-0.68-0.061-0.94 0.2-0.861 1.22-1.12 2.020-0.88 0.52 0.16 1 0.56 1.301 1.2 1.379-0.901 1.379-0.901 2.34-1.5-0.36-0.56-0.539-0.801-0.781-1.040-0.84-0.94-1.959-1.42-3.779-1.379l-0.94 0.119c-0.901 0.22-1.76 0.7-2.28 1.34-1.52 1.721-1.081 4.721 0.759 5.961 1.82 1.36 4.481 1.659 4.821 2.94 0.32 1.56-1.16 2.060-2.621 1.88-1.081-0.24-1.68-0.781-2.34-1.781l-2.44 1.401c0.28 0.64 0.6 0.919 1.080 1.479 2.32 2.341 8.12 2.221 9.161-1.339 0.039-0.12 0.32-0.94 0.099-2.2l0.061 0.089zM17.401 14.708h-2.997c0 2.584-0.012 5.152-0.012 7.74 0 1.643 0.084 3.151-0.184 3.615-0.44 0.919-1.573 0.801-2.088 0.64-0.528-0.261-0.796-0.621-1.107-1.14-0.084-0.14-0.147-0.261-0.169-0.261l-2.433 1.5c0.407 0.84 1 1.563 1.765 2.023 1.14 0.68 2.672 0.9 4.276 0.54 1.044-0.301 1.944-0.921 2.415-1.881 0.68-1.24 0.536-2.76 0.529-4.461 0.016-2.739 0-5.479 0-8.239l0.005-0.075z"></path>
</symbol>
<symbol id="icon-keyboard_arrow_left" viewBox="0 0 24 24">
<title>keyboard_arrow_left</title>
<path d="M15.422 16.078l-1.406 1.406-6-6 6-6 1.406 1.406-4.594 4.594z"></path>
</symbol>
<symbol id="icon-keyboard_arrow_right" viewBox="0 0 24 24">
<title>keyboard_arrow_right</title>
<path d="M8.578 16.359l4.594-4.594-4.594-4.594 1.406-1.406 6 6-6 6z"></path>
</symbol>
<symbol id="icon-open_in_new" viewBox="0 0 24 24">
<title>open_in_new</title>
<path d="M14.016 3h6.984v6.984h-2.016v-3.563l-9.797 9.797-1.406-1.406 9.797-9.797h-3.563v-2.016zM18.984 18.984v-6.984h2.016v6.984c0 1.078-0.938 2.016-2.016 2.016h-13.969c-1.125 0-2.016-0.938-2.016-2.016v-13.969c0-1.078 0.891-2.016 2.016-2.016h6.984v2.016h-6.984v13.969h13.969z"></path>
</symbol>
</defs>
</svg>
