<?xml version="1.0" encoding="UTF-8" standalone="no"?>
<!-- Generator: Adobe Illustrator 16.0.0, SVG Export Plug-In . SVG Version: 6.00 Build 0)  -->

<svg
   xmlns:dc="http://purl.org/dc/elements/1.1/"
   xmlns:cc="http://creativecommons.org/ns#"
   xmlns:rdf="http://www.w3.org/1999/02/22-rdf-syntax-ns#"
   xmlns:svg="http://www.w3.org/2000/svg"
   xmlns="http://www.w3.org/2000/svg"
   xmlns:sodipodi="http://sodipodi.sourceforge.net/DTD/sodipodi-0.dtd"
   xmlns:inkscape="http://www.inkscape.org/namespaces/inkscape"
   version="1.1"
   id="Capa_1"
   x="0px"
   y="0px"
   width="190.25px"
   height="190.25px"
   viewBox="0 0 190.25 190.25"
   sodipodi:docname="two-dots.svg"
   inkscape:version="0.92.2 (5c3e80d, 2017-08-06)">
  <metadata
     id="metadata4666">
    <rdf:RDF>
      <cc:Work
         rdf:about="">
        <dc:format>image/svg+xml</dc:format>
        <dc:type
           rdf:resource="http://purl.org/dc/dcmitype/StillImage" />
        <dc:title></dc:title>
      </cc:Work>
    </rdf:RDF>
  </metadata>
  <defs
     id="defs4664" />
  <sodipodi:namedview
     pagecolor="#ffffff"
     bordercolor="#666666"
     borderopacity="1"
     objecttolerance="10"
     gridtolerance="10"
     guidetolerance="10"
     inkscape:pageopacity="0"
     inkscape:pageshadow="2"
     inkscape:window-width="2560"
     inkscape:window-height="1017"
     id="namedview4662"
     showgrid="false"
     inkscape:zoom="4.9618922"
     inkscape:cx="88.477437"
     inkscape:cy="124.47975"
     inkscape:window-x="-8"
     inkscape:window-y="-8"
     inkscape:window-maximized="1"
     inkscape:current-layer="Capa_1" />
  <path
     d="m 75.121858,2.6725126 c -0.05907,0.01343 -0.11094,0.031695 -0.158672,0.052968 -3.629809,0.1663175 -6.215181,3.4294928 -6.865555,6.7176053 -0.927178,4.6879621 1.777852,9.1721851 7.188127,10.2862011 5.334647,1.098458 9.819708,-2.832501 10.698718,-7.196445 C 87.047438,7.2553657 81.531018,1.2245295 75.121858,2.672534 Z"
     id="path4657"
     inkscape:connector-curvature="0"
     style="stroke-width:0.20447987" />
  <path
     d="m 112.08565,3.0100651 c -4.72916,-1.8730971 -8.70307,2.6042986 -9.37008,6.7227494 -0.80527,4.9717925 2.46938,9.9441685 7.98275,10.4452225 5.19134,0.472056 8.35831,-3.945946 8.93292,-8.355116 0.62235,-4.7810472 -2.36003,-8.796389 -7.54559,-8.8128559 z m 5.22566,4.3895659 c -0.15007,-0.199562 -0.30344,-0.3953972 -0.46177,-0.5859369 -0.033,-0.049239 -0.0664,-0.098212 -0.0993,-0.1474226 0.27758,0.2336746 0.47973,0.47989 0.56117,0.7333595 z"
     id="path4659"
     inkscape:connector-curvature="0"
     style="stroke-width:0.20129305" />
</svg>
