<?xml version="1.0" encoding="iso-8859-1"?>
<!-- Generator: Adobe Illustrator 16.0.0, SVG Export Plug-In . SVG Version: 6.00 Build 0)  -->
<!DOCTYPE svg PUBLIC "-//W3C//DTD SVG 1.1//EN" "http://www.w3.org/Graphics/SVG/1.1/DTD/svg11.dtd">
<svg version="1.1" id="Capa_1" xmlns="http://www.w3.org/2000/svg" xmlns:xlink="http://www.w3.org/1999/xlink" x="0px" y="0px"
	 width="190.25px" height="190.25px" viewBox="0 0 190.25 190.25">
		<path d="M33.052,50.752c-0.271,0.07-0.509,0.165-0.728,0.276C15.67,51.895,3.808,68.905,0.824,86.045
			c-4.254,24.437,8.157,47.812,32.98,53.619c24.476,5.726,45.054-14.765,49.087-37.513C87.768,74.641,62.458,43.204,33.052,50.752z"
			/>
		<path d="M153.35,52.574c-22.88-9.555-42.106,13.285-45.333,34.294c-3.896,25.362,11.947,50.727,38.621,53.283
			c25.116,2.408,40.438-20.129,43.218-42.621C192.867,73.141,178.438,52.658,153.35,52.574z M178.632,74.966
			c-0.726-1.018-1.468-2.017-2.234-2.989c-0.16-0.251-0.321-0.501-0.481-0.752C177.26,72.417,178.238,73.673,178.632,74.966z"/>
</svg>
